<?xml version="1.0" encoding="UTF-8"?>
<!DOCTYPE svg PUBLIC "-//W3C//DTD SVG 1.0//EN" "http://www.w3.org/TR/2001/REC-SVG-20010904/DTD/svg10.dtd">
<!-- Creator: CorelDRAW X6 -->
<svg xmlns="http://www.w3.org/2000/svg" xml:space="preserve" width="2480px" height="3508px" version="1.0" style="shape-rendering:geometricPrecision; text-rendering:geometricPrecision; image-rendering:optimizeQuality; fill-rule:evenodd; clip-rule:evenodd"
viewBox="0 0 2480 3507"
 xmlns:xlink="http://www.w3.org/1999/xlink">
 <defs>
  <style type="text/css">
   <![CDATA[
    .fil1 {fill:#35302F;fill-rule:nonzero}
    .fil0 {fill:#FEFEFE;fill-rule:nonzero}
   ]]>
  </style>
 </defs>
 <g id="Layer_x0020_1">
  <metadata id="CorelCorpID_0Corel-Layer"/>
  <polygon class="fil0" points="-2403,3837 4887,3837 4887,-329 -2403,-329 "/>
  <path class="fil1" d="M4674 3714c0,-5 4,-10 10,-10l0 0c6,0 10,5 10,10l0 0c0,6 -4,10 -10,10l0 0c-6,0 -10,-4 -10,-10z"/>
  <path class="fil1" d="M4433 3714c0,-19 16,-35 36,-35l0 0c20,0 35,16 35,35l0 0c0,20 -15,36 -35,36l0 0c-20,0 -36,-16 -36,-36z"/>
  <path class="fil1" d="M4227 3714c0,-15 12,-27 27,-27l0 0c15,0 27,12 27,27l0 0c0,15 -12,27 -27,27l0 0c-15,0 -27,-12 -27,-27z"/>
  <path class="fil1" d="M4002 3714c0,-20 17,-36 37,-36l0 0c20,0 36,16 36,36l0 0c0,20 -16,37 -36,37l0 0c-20,0 -37,-17 -37,-37z"/>
  <path class="fil1" d="M3798 3714c0,-14 11,-25 26,-25l0 0c14,0 25,11 25,25l0 0c0,14 -11,26 -25,26l0 0c-15,0 -26,-12 -26,-26z"/>
  <path class="fil1" d="M3589 3714c0,-10 9,-19 19,-19l0 0c11,0 20,9 20,19l0 0c0,11 -9,19 -20,19l0 0c-10,0 -19,-8 -19,-19z"/>
  <path class="fil1" d="M3353 3714c0,-22 18,-40 40,-40l0 0c23,0 41,18 41,40l0 0c0,23 -18,41 -41,41l0 0c-22,0 -40,-18 -40,-41z"/>
  <path class="fil1" d="M3171 3714c0,-4 3,-7 7,-7l0 0c4,0 7,3 7,7l0 0c0,4 -3,7 -7,7l0 0c-4,0 -7,-3 -7,-7z"/>
  <path class="fil1" d="M2928 3714c0,-19 16,-35 35,-35l0 0c19,0 35,16 35,35l0 0c0,20 -16,35 -35,35l0 0c-19,0 -35,-15 -35,-35z"/>
  <path class="fil1" d="M2735 3714c0,-7 6,-12 13,-12l0 0c7,0 12,5 12,12l0 0c0,7 -5,13 -12,13l0 0c-7,0 -13,-6 -13,-13z"/>
  <path class="fil1" d="M2501 3714c0,-18 14,-32 32,-32l0 0c18,0 32,14 32,32l0 0c0,18 -14,32 -32,32l0 0c-18,0 -32,-14 -32,-32z"/>
  <path class="fil1" d="M2291 3714c0,-14 12,-26 27,-26l0 0c14,0 26,12 26,26l0 0c0,15 -12,27 -26,27l0 0c-15,0 -27,-12 -27,-27z"/>
  <path class="fil1" d="M2094 3714c0,-5 4,-8 9,-8l0 0c4,0 8,3 8,8l0 0c0,5 -4,9 -8,9l0 0c-5,0 -9,-4 -9,-9z"/>
  <path class="fil1" d="M1883 3714c0,-2 2,-4 4,-4l0 0c3,0 5,2 5,4l0 0c0,3 -2,5 -5,5l0 0c-2,0 -4,-2 -4,-5z"/>
  <path class="fil1" d="M1634 3714c0,-21 17,-38 38,-38l0 0c22,0 39,17 39,38l0 0c0,21 -17,39 -39,39l0 0c-21,0 -38,-18 -38,-39z"/>
  <path class="fil1" d="M1421 3714c0,-20 16,-36 36,-36l0 0c20,0 36,16 36,36l0 0c0,20 -16,36 -36,36l0 0c-20,0 -36,-16 -36,-36z"/>
  <path class="fil1" d="M1211 3714c0,-17 14,-31 31,-31l0 0c18,0 32,14 32,31l0 0c0,18 -14,32 -32,32l0 0c-17,0 -31,-14 -31,-32z"/>
  <path class="fil1" d="M1015 3714c0,-6 5,-12 12,-12l0 0c7,0 12,6 12,12l0 0c0,7 -5,12 -12,12l0 0c-7,0 -12,-5 -12,-12z"/>
  <path class="fil1" d="M783 3714c0,-15 13,-28 29,-28l0 0c16,0 28,13 28,28l0 0c0,16 -12,29 -28,29l0 0c-16,0 -29,-13 -29,-29z"/>
  <path class="fil1" d="M575 3714c0,-12 10,-21 22,-21l0 0c12,0 21,9 21,21l0 0c0,12 -9,22 -21,22l0 0c-12,0 -22,-10 -22,-22z"/>
  <path class="fil1" d="M349 3714c0,-18 15,-33 33,-33l0 0c18,0 32,15 32,33l0 0c0,18 -14,33 -32,33l0 0c-18,0 -33,-15 -33,-33z"/>
  <path class="fil1" d="M156 3714c0,-6 5,-11 11,-11l0 0c6,0 10,5 10,11l0 0c0,6 -4,11 -10,11l0 0c-6,0 -11,-5 -11,-11z"/>
  <path class="fil1" d="M-88 3714c0,-21 18,-39 39,-39l0 0c22,0 40,18 40,39l0 0c0,22 -18,39 -40,39l0 0c-21,0 -39,-17 -39,-39z"/>
  <path class="fil1" d="M-272 3714c0,-4 4,-8 8,-8l0 0c5,0 8,4 8,8l0 0c0,5 -3,8 -8,8l0 0c-4,0 -8,-3 -8,-8z"/>
  <path class="fil1" d="M-492 3714c0,-7 6,-13 13,-13l0 0c7,0 13,6 13,13l0 0c0,7 -6,13 -13,13l0 0c-7,0 -13,-6 -13,-13z"/>
  <path class="fil1" d="M-716 3714c0,-12 10,-22 22,-22l0 0c12,0 22,10 22,22l0 0c0,12 -10,22 -22,22l0 0c-12,0 -22,-10 -22,-22z"/>
  <path class="fil1" d="M-913 3714c0,-2 2,-4 4,-4l0 0c2,0 4,2 4,4l0 0c0,3 -2,5 -4,5l0 0c-2,0 -4,-2 -4,-5z"/>
  <path class="fil1" d="M-1156 3714c0,-18 14,-32 32,-32l0 0c18,0 32,14 32,32l0 0c0,18 -14,32 -32,32l0 0c-18,0 -32,-14 -32,-32z"/>
  <path class="fil1" d="M-1379 3714c0,-22 18,-40 40,-40l0 0c22,0 40,18 40,40l0 0c0,22 -18,40 -40,40l0 0c-22,0 -40,-18 -40,-40z"/>
  <path class="fil1" d="M-1560 3714c0,-3 2,-6 6,-6l0 0c3,0 6,3 6,6l0 0c0,3 -3,6 -6,6l0 0c-4,0 -6,-3 -6,-6z"/>
  <path class="fil1" d="M-1798 3714c0,-16 13,-29 29,-29l0 0c15,0 28,13 28,29l0 0c0,16 -13,29 -28,29l0 0c-16,0 -29,-13 -29,-29z"/>
  <path class="fil1" d="M-2022 3714c0,-21 17,-37 37,-37l0 0c21,0 38,16 38,37l0 0c0,21 -17,38 -38,38l0 0c-20,0 -37,-17 -37,-38z"/>
  <path class="fil1" d="M-2209 3714c0,-5 4,-9 9,-9l0 0c5,0 9,4 9,9l0 0c0,5 -4,9 -9,9l0 0c-5,0 -9,-4 -9,-9z"/>
  <path class="fil1" d="M-2403 3431c2,1 4,3 6,4 4,5 7,11 7,18 0,6 -3,13 -7,17 -2,2 -4,3 -6,5l0 -44z"/>
  <path class="fil1" d="M4652 3453c0,-18 15,-32 32,-32l0 0c17,0 31,14 31,32l0 0c0,17 -14,31 -31,31l0 0c-17,0 -32,-14 -32,-31z"/>
  <path class="fil1" d="M4444 3453c0,-14 11,-25 25,-25l0 0c14,0 25,11 25,25l0 0c0,14 -11,25 -25,25l0 0c-14,0 -25,-11 -25,-25z"/>
  <path class="fil1" d="M4221 3453c0,-18 15,-33 33,-33l0 0c18,0 32,15 32,33l0 0c0,18 -14,32 -32,32l0 0c-18,0 -33,-14 -33,-32z"/>
  <path class="fil1" d="M4023 3453c0,-9 7,-16 16,-16l0 0c8,0 16,7 16,16l0 0c0,9 -8,16 -16,16l0 0c-9,0 -16,-7 -16,-16z"/>
  <path class="fil1" d="M3800 3453c0,-13 10,-24 24,-24l0 0c13,0 23,11 23,24l0 0c0,13 -10,24 -23,24l0 0c-14,0 -24,-11 -24,-24z"/>
  <path class="fil1" d="M3600 3453c0,-5 4,-9 8,-9l0 0c5,0 9,4 9,9l0 0c0,5 -4,8 -9,8l0 0c-4,0 -8,-3 -8,-8z"/>
  <path class="fil1" d="M3363 3453c0,-17 14,-30 30,-30l0 0c17,0 30,13 30,30l0 0c0,16 -13,30 -30,30l0 0c-16,0 -30,-14 -30,-30z"/>
  <path class="fil1" d="M3140 3453c0,-21 17,-38 38,-38l0 0c21,0 38,17 38,38l0 0c0,21 -17,37 -38,37l0 0c-21,0 -38,-16 -38,-37z"/>
  <path class="fil1" d="M2938 3453c0,-14 11,-25 25,-25l0 0c14,0 25,11 25,25l0 0c0,14 -11,25 -25,25l0 0c-14,0 -25,-11 -25,-25z"/>
  <path class="fil1" d="M2719 3453c0,-16 13,-29 29,-29l0 0c16,0 29,13 29,29l0 0c0,16 -13,28 -29,28l0 0c-16,0 -29,-12 -29,-28z"/>
  <path class="fil1" d="M2507 3453c0,-14 12,-26 26,-26l0 0c14,0 25,12 25,26l0 0c0,14 -11,25 -25,25l0 0c-14,0 -26,-11 -26,-25z"/>
  <path class="fil1" d="M2288 3453c0,-17 13,-30 30,-30l0 0c16,0 30,13 30,30l0 0c0,16 -14,30 -30,30l0 0c-17,0 -30,-14 -30,-30z"/>
  <path class="fil1" d="M2069 3453c0,-19 15,-33 34,-33l0 0c18,0 33,14 33,33l0 0c0,18 -15,33 -33,33l0 0c-19,0 -34,-15 -34,-33z"/>
  <path class="fil1" d="M1853 3453c0,-19 16,-34 34,-34l0 0c19,0 35,15 35,34l0 0c0,19 -16,34 -35,34l0 0c-18,0 -34,-15 -34,-34z"/>
  <path class="fil1" d="M1650 3453c0,-13 10,-23 22,-23l0 0c13,0 23,10 23,23l0 0c0,12 -10,22 -23,22l0 0c-12,0 -22,-10 -22,-22z"/>
  <path class="fil1" d="M1453 3453c0,-3 2,-5 4,-5l0 0c3,0 5,2 5,5l0 0c0,2 -2,4 -5,4l0 0c-2,0 -4,-2 -4,-4z"/>
  <path class="fil1" d="M1231 3453c0,-6 5,-11 11,-11l0 0c6,0 11,5 11,11l0 0c0,6 -5,11 -11,11l0 0c-6,0 -11,-5 -11,-11z"/>
  <path class="fil1" d="M1000 3453c0,-15 12,-27 27,-27l0 0c15,0 27,12 27,27l0 0c0,14 -12,26 -27,26l0 0c-15,0 -27,-12 -27,-26z"/>
  <path class="fil1" d="M803 3453c0,-5 4,-9 9,-9l0 0c5,0 9,4 9,9l0 0c0,5 -4,9 -9,9l0 0c-5,0 -9,-4 -9,-9z"/>
  <path class="fil1" d="M585 3453c0,-7 5,-12 12,-12l0 0c7,0 12,5 12,12l0 0c0,6 -5,12 -12,12l0 0c-7,0 -12,-6 -12,-12z"/>
  <path class="fil1" d="M350 3453c0,-17 14,-31 32,-31l0 0c17,0 31,14 31,31l0 0c0,17 -14,31 -31,31l0 0c-18,0 -32,-14 -32,-31z"/>
  <path class="fil1" d="M162 3453c0,-3 2,-5 5,-5l0 0c2,0 4,2 4,5l0 0c0,2 -2,4 -4,4l0 0c-3,0 -5,-2 -5,-4z"/>
  <path class="fil1" d="M-75 3453c0,-15 12,-27 26,-27l0 0c15,0 27,12 27,27l0 0c0,14 -12,26 -27,26l0 0c-14,0 -26,-12 -26,-26z"/>
  <path class="fil1" d="M-272 3453c0,-5 4,-9 8,-9l0 0c5,0 9,4 9,9l0 0c0,4 -4,8 -9,8l0 0c-4,0 -8,-4 -8,-8z"/>
  <path class="fil1" d="M-499 3453c0,-12 9,-21 20,-21l0 0c11,0 21,9 21,21l0 0c0,11 -10,20 -21,20l0 0c-11,0 -20,-9 -20,-20z"/>
  <path class="fil1" d="M-717 3453c0,-13 10,-23 23,-23l0 0c13,0 23,10 23,23l0 0c0,13 -10,23 -23,23l0 0c-13,0 -23,-10 -23,-23z"/>
  <path class="fil1" d="M-932 3453c0,-13 10,-24 23,-24l0 0c13,0 23,11 23,24l0 0c0,13 -10,23 -23,23l0 0c-13,0 -23,-10 -23,-23z"/>
  <path class="fil1" d="M-1136 3453c0,-7 5,-12 12,-12l0 0c7,0 12,5 12,12l0 0c0,6 -5,12 -12,12l0 0c-7,0 -12,-6 -12,-12z"/>
  <path class="fil1" d="M-1373 3453c0,-19 15,-34 34,-34l0 0c18,0 33,15 33,34l0 0c0,18 -15,33 -33,33l0 0c-19,0 -34,-15 -34,-33z"/>
  <path class="fil1" d="M-1566 3453c0,-7 5,-12 12,-12l0 0c6,0 11,5 11,12l0 0c0,6 -5,11 -11,11l0 0c-7,0 -12,-5 -12,-11z"/>
  <path class="fil1" d="M-1786 3453c0,-9 8,-16 17,-16l0 0c8,0 16,7 16,16l0 0c0,9 -8,16 -16,16l0 0c-9,0 -17,-7 -17,-16z"/>
  <path class="fil1" d="M-2021 3453c0,-20 16,-37 36,-37l0 0c20,0 37,17 37,37l0 0c0,20 -17,36 -37,36l0 0c-20,0 -36,-16 -36,-36z"/>
  <path class="fil1" d="M-2225 3453c0,-15 11,-26 25,-26l0 0c15,0 26,11 26,26l0 0c0,14 -11,25 -26,25l0 0c-14,0 -25,-11 -25,-25z"/>
  <path class="fil1" d="M4887 3461c-1,-2 -2,-5 -2,-8 0,-3 1,-6 2,-8l0 16z"/>
  <path class="fil1" d="M-2403 3154c6,2 11,6 15,10 8,7 12,17 12,27 0,10 -4,20 -12,28 -4,4 -9,7 -15,9l0 -74z"/>
  <path class="fil1" d="M4652 3191c0,-17 14,-32 32,-32l0 0c18,0 32,15 32,32l0 0c0,18 -14,32 -32,32l0 0c-18,0 -32,-14 -32,-32z"/>
  <path class="fil1" d="M4453 3191c0,-9 7,-16 16,-16l0 0c9,0 16,7 16,16l0 0c0,9 -7,16 -16,16l0 0c-9,0 -16,-7 -16,-16z"/>
  <path class="fil1" d="M4221 3191c0,-18 15,-32 33,-32l0 0c18,0 32,14 32,32l0 0c0,18 -14,33 -32,33l0 0c-18,0 -33,-15 -33,-33z"/>
  <path class="fil1" d="M4020 3191c0,-10 8,-19 19,-19l0 0c10,0 19,9 19,19l0 0c0,11 -9,19 -19,19l0 0c-11,0 -19,-8 -19,-19z"/>
  <path class="fil1" d="M3793 3191c0,-17 14,-31 31,-31l0 0c16,0 30,14 30,31l0 0c0,17 -14,31 -30,31l0 0c-17,0 -31,-14 -31,-31z"/>
  <path class="fil1" d="M3592 3191c0,-9 8,-16 16,-16l0 0c9,0 16,7 16,16l0 0c0,9 -7,16 -16,16l0 0c-8,0 -16,-7 -16,-16z"/>
  <path class="fil1" d="M3354 3191c0,-22 17,-39 39,-39l0 0c22,0 40,17 40,39l0 0c0,22 -18,40 -40,40l0 0c-22,0 -39,-18 -39,-40z"/>
  <path class="fil1" d="M3173 3191c0,-3 2,-5 5,-5l0 0c3,0 5,2 5,5l0 0c0,3 -2,5 -5,5l0 0c-3,0 -5,-2 -5,-5z"/>
  <path class="fil1" d="M2943 3191c0,-11 9,-20 20,-20l0 0c11,0 20,9 20,20l0 0c0,11 -9,20 -20,20l0 0c-11,0 -20,-9 -20,-20z"/>
  <path class="fil1" d="M2732 3191c0,-9 7,-16 16,-16l0 0c9,0 16,7 16,16l0 0c0,9 -7,16 -16,16l0 0c-9,0 -16,-7 -16,-16z"/>
  <path class="fil1" d="M2499 3191c0,-18 15,-34 34,-34l0 0c18,0 34,16 34,34l0 0c0,19 -16,34 -34,34l0 0c-19,0 -34,-15 -34,-34z"/>
  <path class="fil1" d="M2311 3191c0,-3 3,-6 7,-6l0 0c3,0 6,3 6,6l0 0c0,4 -3,7 -6,7l0 0c-4,0 -7,-3 -7,-7z"/>
  <path class="fil1" d="M2095 3191c0,-4 3,-7 8,-7l0 0c4,0 7,3 7,7l0 0c0,4 -3,8 -7,8l0 0c-5,0 -8,-4 -8,-8z"/>
  <path class="fil1" d="M1864 3191c0,-12 11,-23 23,-23l0 0c13,0 23,11 23,23l0 0c0,13 -10,23 -23,23l0 0c-12,0 -23,-10 -23,-23z"/>
  <path class="fil1" d="M1638 3191c0,-19 15,-35 34,-35l0 0c20,0 35,16 35,35l0 0c0,19 -15,35 -35,35l0 0c-19,0 -34,-16 -34,-35z"/>
  <path class="fil1" d="M1440 3191c0,-9 8,-17 17,-17l0 0c10,0 18,8 18,17l0 0c0,10 -8,18 -18,18l0 0c-9,0 -17,-8 -17,-18z"/>
  <path class="fil1" d="M1229 3191c0,-7 6,-13 13,-13l0 0c8,0 14,6 14,13l0 0c0,8 -6,14 -14,14l0 0c-7,0 -13,-6 -13,-14z"/>
  <path class="fil1" d="M1022 3191c0,-2 2,-5 5,-5l0 0c3,0 5,3 5,5l0 0c0,3 -2,5 -5,5l0 0c-3,0 -5,-2 -5,-5z"/>
  <path class="fil1" d="M779 3191c0,-18 15,-33 33,-33l0 0c18,0 33,15 33,33l0 0c0,18 -15,33 -33,33l0 0c-18,0 -33,-15 -33,-33z"/>
  <path class="fil1" d="M586 3191c0,-6 5,-10 11,-10l0 0c6,0 10,4 10,10l0 0c0,6 -4,11 -10,11l0 0c-6,0 -11,-5 -11,-11z"/>
  <path class="fil1" d="M346 3191c0,-19 16,-36 36,-36l0 0c19,0 35,17 35,36l0 0c0,20 -16,36 -35,36l0 0c-20,0 -36,-16 -36,-36z"/>
  <path class="fil1" d="M135 3191c0,-17 14,-31 32,-31l0 0c17,0 31,14 31,31l0 0c0,18 -14,32 -31,32l0 0c-18,0 -32,-14 -32,-32z"/>
  <path class="fil1" d="M-57 3191c0,-4 4,-8 8,-8l0 0c5,0 9,4 9,8l0 0c0,5 -4,8 -9,8l0 0c-4,0 -8,-3 -8,-8z"/>
  <path class="fil1" d="M-297 3191c0,-18 15,-33 33,-33l0 0c19,0 34,15 34,33l0 0c0,19 -15,34 -34,34l0 0c-18,0 -33,-15 -33,-34z"/>
  <path class="fil1" d="M-492 3191c0,-7 6,-13 13,-13l0 0c7,0 13,6 13,13l0 0c0,7 -6,13 -13,13l0 0c-7,0 -13,-6 -13,-13z"/>
  <path class="fil1" d="M-728 3191c0,-19 15,-34 34,-34l0 0c19,0 34,15 34,34l0 0c0,19 -15,34 -34,34l0 0c-19,0 -34,-15 -34,-34z"/>
  <path class="fil1" d="M-919 3191c0,-5 4,-10 10,-10l0 0c5,0 10,5 10,10l0 0c0,6 -5,10 -10,10l0 0c-6,0 -10,-4 -10,-10z"/>
  <path class="fil1" d="M-1159 3191c0,-19 16,-34 35,-34l0 0c19,0 34,15 34,34l0 0c0,19 -15,35 -34,35l0 0c-19,0 -35,-16 -35,-35z"/>
  <path class="fil1" d="M-1380 3191c0,-22 18,-40 41,-40l0 0c22,0 40,18 40,40l0 0c0,23 -18,41 -40,41l0 0c-23,0 -41,-18 -41,-41z"/>
  <path class="fil1" d="M-1570 3191c0,-8 7,-15 16,-15l0 0c8,0 15,7 15,15l0 0c0,9 -7,16 -15,16l0 0c-9,0 -16,-7 -16,-16z"/>
  <path class="fil1" d="M-1809 3191c0,-22 18,-39 40,-39l0 0c21,0 39,17 39,39l0 0c0,22 -18,40 -39,40l0 0c-22,0 -40,-18 -40,-40z"/>
  <path class="fil1" d="M-2002 3191c0,-9 8,-17 17,-17l0 0c10,0 18,8 18,17l0 0c0,10 -8,18 -18,18l0 0c-9,0 -17,-8 -17,-18z"/>
  <path class="fil1" d="M-2213 3191c0,-7 6,-13 13,-13l0 0c8,0 14,6 14,13l0 0c0,8 -6,14 -14,14l0 0c-7,0 -13,-6 -13,-14z"/>
  <path class="fil1" d="M4887 3218c-3,-1 -6,-3 -9,-6 -5,-5 -9,-13 -9,-21 0,-8 4,-15 9,-21 3,-2 6,-4 9,-6l0 54z"/>
  <path class="fil1" d="M-2403 2913c1,1 2,2 2,3 4,3 6,9 6,14 0,5 -2,10 -6,14 0,1 -1,1 -2,2l0 -33z"/>
  <path class="fil1" d="M4662 2930c0,-12 10,-22 22,-22l0 0c12,0 22,10 22,22l0 0c0,12 -10,21 -22,21l0 0c-12,0 -22,-9 -22,-21z"/>
  <path class="fil1" d="M4449 2930c0,-11 9,-20 20,-20l0 0c11,0 19,9 19,20l0 0c0,11 -8,19 -19,19l0 0c-11,0 -20,-8 -20,-19z"/>
  <path class="fil1" d="M4244 2930c0,-6 4,-10 10,-10l0 0c5,0 10,4 10,10l0 0c0,5 -5,10 -10,10l0 0c-6,0 -10,-5 -10,-10z"/>
  <path class="fil1" d="M4016 2930c0,-13 10,-23 23,-23l0 0c12,0 23,10 23,23l0 0c0,12 -11,23 -23,23l0 0c-13,0 -23,-11 -23,-23z"/>
  <path class="fil1" d="M3789 2930c0,-19 16,-34 35,-34l0 0c18,0 34,15 34,34l0 0c0,19 -16,34 -34,34l0 0c-19,0 -35,-15 -35,-34z"/>
  <path class="fil1" d="M3598 2930c0,-6 5,-10 10,-10l0 0c6,0 10,4 10,10l0 0c0,5 -4,10 -10,10l0 0c-5,0 -10,-5 -10,-10z"/>
  <path class="fil1" d="M3353 2930c0,-23 18,-41 40,-41l0 0c23,0 41,18 41,41l0 0c0,22 -18,40 -41,40l0 0c-22,0 -40,-18 -40,-40z"/>
  <path class="fil1" d="M3158 2930c0,-11 9,-20 20,-20l0 0c11,0 20,9 20,20l0 0c0,11 -9,20 -20,20l0 0c-11,0 -20,-9 -20,-20z"/>
  <path class="fil1" d="M2954 2930c0,-5 4,-10 9,-10l0 0c5,0 10,5 10,10l0 0c0,5 -5,9 -10,9l0 0c-5,0 -9,-4 -9,-9z"/>
  <path class="fil1" d="M2709 2930c0,-21 18,-39 39,-39l0 0c21,0 38,18 38,39l0 0c0,21 -17,38 -38,38l0 0c-21,0 -39,-17 -39,-38z"/>
  <path class="fil1" d="M2515 2930c0,-10 8,-18 18,-18l0 0c10,0 18,8 18,18l0 0c0,10 -8,18 -18,18l0 0c-10,0 -18,-8 -18,-18z"/>
  <path class="fil1" d="M2313 2930c0,-3 2,-5 5,-5l0 0c2,0 5,2 5,5l0 0c0,2 -3,5 -5,5l0 0c-3,0 -5,-3 -5,-5z"/>
  <path class="fil1" d="M2087 2930c0,-9 7,-16 16,-16l0 0c8,0 15,7 15,16l0 0c0,8 -7,15 -15,15l0 0c-9,0 -16,-7 -16,-15z"/>
  <path class="fil1" d="M1881 2930c0,-4 3,-6 6,-6l0 0c4,0 6,2 6,6l0 0c0,3 -2,6 -6,6l0 0c-3,0 -6,-3 -6,-6z"/>
  <path class="fil1" d="M1647 2930c0,-14 11,-26 25,-26l0 0c15,0 26,12 26,26l0 0c0,14 -11,26 -26,26l0 0c-14,0 -25,-12 -25,-26z"/>
  <path class="fil1" d="M1450 2930c0,-4 3,-7 7,-7l0 0c4,0 7,3 7,7l0 0c0,4 -3,7 -7,7l0 0c-4,0 -7,-3 -7,-7z"/>
  <path class="fil1" d="M1205 2930c0,-21 16,-38 37,-38l0 0c21,0 38,17 38,38l0 0c0,21 -17,37 -38,37l0 0c-21,0 -37,-16 -37,-37z"/>
  <path class="fil1" d="M1001 2930c0,-15 12,-26 26,-26l0 0c14,0 26,11 26,26l0 0c0,14 -12,26 -26,26l0 0c-14,0 -26,-12 -26,-26z"/>
  <path class="fil1" d="M795 2930c0,-9 8,-17 17,-17l0 0c9,0 16,8 16,17l0 0c0,9 -7,16 -16,16l0 0c-9,0 -17,-7 -17,-16z"/>
  <path class="fil1" d="M566 2930c0,-17 14,-31 31,-31l0 0c17,0 31,14 31,31l0 0c0,17 -14,31 -31,31l0 0c-17,0 -31,-14 -31,-31z"/>
  <path class="fil1" d="M370 2930c0,-7 5,-12 12,-12l0 0c6,0 11,5 11,12l0 0c0,6 -5,11 -11,11l0 0c-7,0 -12,-5 -12,-11z"/>
  <path class="fil1" d="M137 2930c0,-17 13,-30 30,-30l0 0c16,0 30,13 30,30l0 0c0,16 -14,30 -30,30l0 0c-17,0 -30,-14 -30,-30z"/>
  <path class="fil1" d="M-70 2930c0,-12 10,-22 21,-22l0 0c12,0 22,10 22,22l0 0c0,12 -10,21 -22,21l0 0c-11,0 -21,-9 -21,-21z"/>
  <path class="fil1" d="M-303 2930c0,-22 17,-40 39,-40l0 0c22,0 40,18 40,40l0 0c0,22 -18,39 -40,39l0 0c-22,0 -39,-17 -39,-39z"/>
  <path class="fil1" d="M-493 2930c0,-8 6,-15 14,-15l0 0c8,0 15,7 15,15l0 0c0,8 -7,14 -15,14l0 0c-8,0 -14,-6 -14,-14z"/>
  <path class="fil1" d="M-733 2930c0,-22 17,-39 39,-39l0 0c22,0 39,17 39,39l0 0c0,21 -17,39 -39,39l0 0c-22,0 -39,-18 -39,-39z"/>
  <path class="fil1" d="M-940 2930c0,-17 14,-31 31,-31l0 0c17,0 31,14 31,31l0 0c0,17 -14,31 -31,31l0 0c-17,0 -31,-14 -31,-31z"/>
  <path class="fil1" d="M-1146 2930c0,-12 10,-22 22,-22l0 0c12,0 22,10 22,22l0 0c0,12 -10,22 -22,22l0 0c-12,0 -22,-10 -22,-22z"/>
  <path class="fil1" d="M-1343 2930c0,-3 1,-4 4,-4l0 0c2,0 4,1 4,4l0 0c0,2 -2,4 -4,4l0 0c-3,0 -4,-2 -4,-4z"/>
  <path class="fil1" d="M-1585 2930c0,-17 14,-31 31,-31l0 0c17,0 31,14 31,31l0 0c0,17 -14,31 -31,31l0 0c-17,0 -31,-14 -31,-31z"/>
  <path class="fil1" d="M-1791 2930c0,-12 9,-22 22,-22l0 0c12,0 22,10 22,22l0 0c0,12 -10,22 -22,22l0 0c-13,0 -22,-10 -22,-22z"/>
  <path class="fil1" d="M-2024 2930c0,-22 18,-40 39,-40l0 0c22,0 40,18 40,40l0 0c0,21 -18,39 -40,39l0 0c-21,0 -39,-18 -39,-39z"/>
  <path class="fil1" d="M-2210 2930c0,-6 5,-11 10,-11l0 0c6,0 11,5 11,11l0 0c0,5 -5,10 -11,10l0 0c-5,0 -10,-5 -10,-10z"/>
  <path class="fil1" d="M4887 2943c0,0 0,0 -1,0 -3,-4 -5,-8 -5,-13 0,-5 2,-10 5,-13 1,0 1,-1 1,-1l0 27z"/>
  <path class="fil1" d="M-2403 2640c3,2 7,4 10,7 5,5 9,13 9,21 0,8 -4,16 -9,22 -3,3 -7,5 -10,7l0 -57z"/>
  <path class="fil1" d="M4680 2668c0,-2 1,-4 4,-4l0 0c2,0 4,2 4,4l0 0c0,3 -2,5 -4,5l0 0c-3,0 -4,-2 -4,-5z"/>
  <path class="fil1" d="M4450 2668c0,-10 8,-19 19,-19l0 0c11,0 19,9 19,19l0 0c0,11 -8,20 -19,20l0 0c-11,0 -19,-9 -19,-20z"/>
  <path class="fil1" d="M4221 2668c0,-18 15,-32 33,-32l0 0c18,0 32,14 32,32l0 0c0,18 -14,33 -32,33l0 0c-18,0 -33,-15 -33,-33z"/>
  <path class="fil1" d="M4015 2668c0,-13 10,-24 24,-24l0 0c13,0 24,11 24,24l0 0c0,14 -11,24 -24,24l0 0c-14,0 -24,-10 -24,-24z"/>
  <path class="fil1" d="M3812 2668c0,-6 5,-11 12,-11l0 0c6,0 11,5 11,11l0 0c0,7 -5,12 -11,12l0 0c-7,0 -12,-5 -12,-12z"/>
  <path class="fil1" d="M3597 2668c0,-6 5,-11 11,-11l0 0c6,0 11,5 11,11l0 0c0,6 -5,11 -11,11l0 0c-6,0 -11,-5 -11,-11z"/>
  <path class="fil1" d="M3366 2668c0,-15 12,-27 27,-27l0 0c15,0 28,12 28,27l0 0c0,15 -13,28 -28,28l0 0c-15,0 -27,-13 -27,-28z"/>
  <path class="fil1" d="M3159 2668c0,-10 9,-19 19,-19l0 0c11,0 19,9 19,19l0 0c0,11 -8,19 -19,19l0 0c-10,0 -19,-8 -19,-19z"/>
  <path class="fil1" d="M2923 2668c0,-22 18,-40 40,-40l0 0c22,0 40,18 40,40l0 0c0,22 -18,40 -40,40l0 0c-22,0 -40,-18 -40,-40z"/>
  <path class="fil1" d="M2724 2668c0,-13 10,-24 24,-24l0 0c13,0 24,11 24,24l0 0c0,14 -11,25 -24,25l0 0c-14,0 -24,-11 -24,-25z"/>
  <path class="fil1" d="M2528 2668c0,-3 2,-5 5,-5l0 0c3,0 5,2 5,5l0 0c0,3 -2,6 -5,6l0 0c-3,0 -5,-3 -5,-6z"/>
  <path class="fil1" d="M2278 2668c0,-22 18,-40 40,-40l0 0c22,0 40,18 40,40l0 0c0,22 -18,40 -40,40l0 0c-22,0 -40,-18 -40,-40z"/>
  <path class="fil1" d="M2086 2668c0,-9 8,-16 17,-16l0 0c9,0 16,7 16,16l0 0c0,9 -7,17 -16,17l0 0c-9,0 -17,-8 -17,-17z"/>
  <path class="fil1" d="M1863 2668c0,-13 11,-25 24,-25l0 0c14,0 25,12 25,25l0 0c0,14 -11,25 -25,25l0 0c-13,0 -24,-11 -24,-25z"/>
  <path class="fil1" d="M1663 2668c0,-5 4,-9 9,-9l0 0c5,0 9,4 9,9l0 0c0,5 -4,9 -9,9l0 0c-5,0 -9,-4 -9,-9z"/>
  <path class="fil1" d="M1443 2668c0,-7 7,-14 14,-14l0 0c8,0 14,7 14,14l0 0c0,8 -6,14 -14,14l0 0c-7,0 -14,-6 -14,-14z"/>
  <path class="fil1" d="M1203 2668c0,-21 17,-39 39,-39l0 0c22,0 40,18 40,39l0 0c0,22 -18,40 -40,40l0 0c-22,0 -39,-18 -39,-40z"/>
  <path class="fil1" d="M1015 2668c0,-6 5,-12 12,-12l0 0c7,0 12,6 12,12l0 0c0,7 -5,12 -12,12l0 0c-7,0 -12,-5 -12,-12z"/>
  <path class="fil1" d="M773 2668c0,-21 17,-39 39,-39l0 0c21,0 39,18 39,39l0 0c0,22 -18,39 -39,39l0 0c-22,0 -39,-17 -39,-39z"/>
  <path class="fil1" d="M571 2668c0,-14 11,-26 26,-26l0 0c14,0 26,12 26,26l0 0c0,15 -12,26 -26,26l0 0c-15,0 -26,-11 -26,-26z"/>
  <path class="fil1" d="M365 2668c0,-9 7,-16 17,-16l0 0c9,0 16,7 16,16l0 0c0,9 -7,17 -16,17l0 0c-10,0 -17,-8 -17,-17z"/>
  <path class="fil1" d="M132 2668c0,-19 16,-34 35,-34l0 0c18,0 34,15 34,34l0 0c0,19 -16,34 -34,34l0 0c-19,0 -35,-15 -35,-34z"/>
  <path class="fil1" d="M-65 2668c0,-9 7,-16 16,-16l0 0c9,0 17,7 17,16l0 0c0,9 -8,17 -17,17l0 0c-9,0 -16,-8 -16,-17z"/>
  <path class="fil1" d="M-282 2668c0,-10 8,-18 18,-18l0 0c11,0 19,8 19,18l0 0c0,11 -8,19 -19,19l0 0c-10,0 -18,-8 -18,-19z"/>
  <path class="fil1" d="M-508 2668c0,-16 13,-29 29,-29l0 0c16,0 30,13 30,29l0 0c0,17 -14,30 -30,30l0 0c-16,0 -29,-13 -29,-30z"/>
  <path class="fil1" d="M-726 2668c0,-17 15,-31 32,-31l0 0c18,0 32,14 32,31l0 0c0,18 -14,32 -32,32l0 0c-17,0 -32,-14 -32,-32z"/>
  <path class="fil1" d="M-929 2668c0,-11 9,-20 20,-20l0 0c11,0 20,9 20,20l0 0c0,11 -9,20 -20,20l0 0c-11,0 -20,-9 -20,-20z"/>
  <path class="fil1" d="M-1161 2668c0,-20 17,-37 37,-37l0 0c20,0 37,17 37,37l0 0c0,21 -17,37 -37,37l0 0c-20,0 -37,-16 -37,-37z"/>
  <path class="fil1" d="M-1368 2668c0,-15 13,-28 29,-28l0 0c15,0 28,13 28,28l0 0c0,16 -13,29 -28,29l0 0c-16,0 -29,-13 -29,-29z"/>
  <path class="fil1" d="M-1578 2668c0,-13 11,-23 24,-23l0 0c13,0 23,10 23,23l0 0c0,13 -10,24 -23,24l0 0c-13,0 -24,-11 -24,-24z"/>
  <path class="fil1" d="M-1804 2668c0,-19 15,-34 35,-34l0 0c19,0 34,15 34,34l0 0c0,19 -15,35 -34,35l0 0c-20,0 -35,-16 -35,-35z"/>
  <path class="fil1" d="M-2010 2668c0,-14 11,-25 25,-25l0 0c15,0 26,11 26,25l0 0c0,14 -11,26 -26,26l0 0c-14,0 -25,-12 -25,-26z"/>
  <path class="fil1" d="M-2215 2668c0,-8 7,-15 15,-15l0 0c9,0 16,7 16,15l0 0c0,9 -7,16 -16,16l0 0c-8,0 -15,-7 -15,-16z"/>
  <path class="fil1" d="M4887 2696c-3,-2 -6,-4 -9,-7 -5,-5 -9,-13 -9,-21 0,-8 4,-15 9,-21 3,-2 6,-5 9,-6l0 55z"/>
  <path class="fil1" d="M-2403 2396c2,3 4,7 4,11 0,4 -2,7 -4,10l0 -21z"/>
  <path class="fil1" d="M4674 2407c0,-6 4,-10 10,-10l0 0c6,0 10,4 10,10l0 0c0,5 -4,10 -10,10l0 0c-6,0 -10,-5 -10,-10z"/>
  <path class="fil1" d="M4462 2407c0,-4 3,-7 7,-7l0 0c4,0 7,3 7,7l0 0c0,4 -3,7 -7,7l0 0c-4,0 -7,-3 -7,-7z"/>
  <path class="fil1" d="M4215 2407c0,-22 17,-39 39,-39l0 0c21,0 39,17 39,39l0 0c0,21 -18,39 -39,39l0 0c-22,0 -39,-18 -39,-39z"/>
  <path class="fil1" d="M4018 2407c0,-12 9,-21 21,-21l0 0c11,0 21,9 21,21l0 0c0,11 -10,21 -21,21l0 0c-12,0 -21,-10 -21,-21z"/>
  <path class="fil1" d="M3783 2407c0,-23 18,-41 41,-41l0 0c22,0 40,18 40,41l0 0c0,22 -18,41 -40,41l0 0c-23,0 -41,-19 -41,-41z"/>
  <path class="fil1" d="M3603 2407c0,-3 2,-6 5,-6l0 0c4,0 6,3 6,6l0 0c0,3 -2,6 -6,6l0 0c-3,0 -5,-3 -5,-6z"/>
  <path class="fil1" d="M3379 2407c0,-8 6,-14 14,-14l0 0c8,0 15,6 15,14l0 0c0,8 -7,14 -15,14l0 0c-8,0 -14,-6 -14,-14z"/>
  <path class="fil1" d="M3146 2407c0,-18 14,-32 32,-32l0 0c18,0 32,14 32,32l0 0c0,18 -14,32 -32,32l0 0c-18,0 -32,-14 -32,-32z"/>
  <path class="fil1" d="M2927 2407c0,-20 16,-36 36,-36l0 0c20,0 36,16 36,36l0 0c0,20 -16,36 -36,36l0 0c-20,0 -36,-16 -36,-36z"/>
  <path class="fil1" d="M2721 2407c0,-15 12,-27 27,-27l0 0c15,0 27,12 27,27l0 0c0,15 -12,27 -27,27l0 0c-15,0 -27,-12 -27,-27z"/>
  <path class="fil1" d="M2511 2407c0,-13 9,-23 22,-23l0 0c12,0 22,10 22,23l0 0c0,12 -10,22 -22,22l0 0c-13,0 -22,-10 -22,-22z"/>
  <path class="fil1" d="M2298 2407c0,-11 9,-20 20,-20l0 0c11,0 19,9 19,20l0 0c0,11 -8,19 -19,19l0 0c-11,0 -20,-8 -20,-19z"/>
  <path class="fil1" d="M2081 2407c0,-12 10,-21 22,-21l0 0c11,0 21,9 21,21l0 0c0,11 -10,21 -21,21l0 0c-12,0 -22,-10 -22,-21z"/>
  <path class="fil1" d="M1882 2407c0,-3 2,-6 5,-6l0 0c4,0 6,3 6,6l0 0c0,3 -2,6 -6,6l0 0c-3,0 -5,-3 -5,-6z"/>
  <path class="fil1" d="M1656 2407c0,-9 7,-17 16,-17l0 0c9,0 17,8 17,17l0 0c0,9 -8,16 -17,16l0 0c-9,0 -16,-7 -16,-16z"/>
  <path class="fil1" d="M1418 2407c0,-22 17,-40 39,-40l0 0c22,0 40,18 40,40l0 0c0,22 -18,39 -40,39l0 0c-22,0 -39,-17 -39,-39z"/>
  <path class="fil1" d="M1238 2407c0,-3 2,-4 4,-4l0 0c3,0 4,1 4,4l0 0c0,2 -1,4 -4,4l0 0c-2,0 -4,-2 -4,-4z"/>
  <path class="fil1" d="M986 2407c0,-23 19,-41 41,-41l0 0c23,0 41,18 41,41l0 0c0,22 -18,41 -41,41l0 0c-22,0 -41,-19 -41,-41z"/>
  <path class="fil1" d="M805 2407c0,-4 3,-7 7,-7l0 0c4,0 7,3 7,7l0 0c0,4 -3,7 -7,7l0 0c-4,0 -7,-3 -7,-7z"/>
  <path class="fil1" d="M581 2407c0,-9 7,-16 16,-16l0 0c9,0 16,7 16,16l0 0c0,9 -7,16 -16,16l0 0c-9,0 -16,-7 -16,-16z"/>
  <path class="fil1" d="M370 2407c0,-7 5,-12 12,-12l0 0c6,0 12,5 12,12l0 0c0,6 -6,12 -12,12l0 0c-7,0 -12,-6 -12,-12z"/>
  <path class="fil1" d="M161 2407c0,-3 3,-5 6,-5l0 0c2,0 5,2 5,5l0 0c0,3 -3,5 -5,5l0 0c-3,0 -6,-2 -6,-5z"/>
  <path class="fil1" d="M-60 2407c0,-6 5,-11 11,-11l0 0c7,0 11,5 11,11l0 0c0,6 -4,11 -11,11l0 0c-6,0 -11,-5 -11,-11z"/>
  <path class="fil1" d="M-279 2407c0,-9 7,-16 15,-16l0 0c9,0 16,7 16,16l0 0c0,8 -7,15 -16,15l0 0c-8,0 -15,-7 -15,-15z"/>
  <path class="fil1" d="M-515 2407c0,-20 16,-36 36,-36l0 0c20,0 36,16 36,36l0 0c0,20 -16,36 -36,36l0 0c-20,0 -36,-16 -36,-36z"/>
  <path class="fil1" d="M-723 2407c0,-16 13,-29 29,-29l0 0c16,0 29,13 29,29l0 0c0,16 -13,28 -29,28l0 0c-16,0 -29,-12 -29,-28z"/>
  <path class="fil1" d="M-934 2407c0,-14 11,-25 25,-25l0 0c14,0 25,11 25,25l0 0c0,14 -11,25 -25,25l0 0c-14,0 -25,-11 -25,-25z"/>
  <path class="fil1" d="M-1157 2407c0,-18 15,-33 33,-33l0 0c18,0 33,15 33,33l0 0c0,18 -15,32 -33,32l0 0c-18,0 -33,-14 -33,-32z"/>
  <path class="fil1" d="M-1351 2407c0,-7 5,-12 12,-12l0 0c6,0 11,5 11,12l0 0c0,6 -5,11 -11,11l0 0c-7,0 -12,-5 -12,-11z"/>
  <path class="fil1" d="M-1594 2407c0,-22 17,-40 40,-40l0 0c22,0 40,18 40,40l0 0c0,22 -18,40 -40,40l0 0c-23,0 -40,-18 -40,-40z"/>
  <path class="fil1" d="M-1806 2407c0,-20 17,-36 37,-36l0 0c19,0 36,16 36,36l0 0c0,20 -17,36 -36,36l0 0c-20,0 -37,-16 -37,-36z"/>
  <path class="fil1" d="M-2022 2407c0,-21 17,-37 37,-37l0 0c21,0 37,16 37,37l0 0c0,20 -16,37 -37,37l0 0c-20,0 -37,-17 -37,-37z"/>
  <path class="fil1" d="M-2235 2407c0,-20 16,-35 35,-35l0 0c20,0 35,15 35,35l0 0c0,19 -15,35 -35,35l0 0c-19,0 -35,-16 -35,-35z"/>
  <path class="fil1" d="M4677 2145c0,-4 3,-7 7,-7l0 0c4,0 7,3 7,7l0 0c0,4 -3,7 -7,7l0 0c-4,0 -7,-3 -7,-7z"/>
  <path class="fil1" d="M4451 2145c0,-9 8,-17 18,-17l0 0c10,0 17,8 17,17l0 0c0,10 -7,18 -17,18l0 0c-10,0 -18,-8 -18,-18z"/>
  <path class="fil1" d="M4214 2145c0,-21 18,-39 40,-39l0 0c21,0 39,18 39,39l0 0c0,22 -18,40 -39,40l0 0c-22,0 -40,-18 -40,-40z"/>
  <path class="fil1" d="M4011 2145c0,-15 12,-28 28,-28l0 0c15,0 28,13 28,28l0 0c0,16 -13,28 -28,28l0 0c-16,0 -28,-12 -28,-28z"/>
  <path class="fil1" d="M3809 2145c0,-8 7,-14 15,-14l0 0c8,0 14,6 14,14l0 0c0,8 -6,15 -14,15l0 0c-8,0 -15,-7 -15,-15z"/>
  <path class="fil1" d="M3582 2145c0,-14 12,-26 26,-26l0 0c15,0 26,12 26,26l0 0c0,15 -11,26 -26,26l0 0c-14,0 -26,-11 -26,-26z"/>
  <path class="fil1" d="M3365 2145c0,-15 13,-28 28,-28l0 0c16,0 29,13 29,28l0 0c0,16 -13,29 -29,29l0 0c-15,0 -28,-13 -28,-29z"/>
  <path class="fil1" d="M3141 2145c0,-20 17,-37 37,-37l0 0c21,0 37,17 37,37l0 0c0,21 -16,38 -37,38l0 0c-20,0 -37,-17 -37,-38z"/>
  <path class="fil1" d="M2950 2145c0,-7 6,-13 13,-13l0 0c7,0 14,6 14,13l0 0c0,8 -7,14 -14,14l0 0c-7,0 -13,-6 -13,-14z"/>
  <path class="fil1" d="M2739 2145c0,-5 4,-9 9,-9l0 0c5,0 9,4 9,9l0 0c0,5 -4,9 -9,9l0 0c-5,0 -9,-4 -9,-9z"/>
  <path class="fil1" d="M2520 2145c0,-7 6,-12 13,-12l0 0c7,0 12,5 12,12l0 0c0,7 -5,13 -12,13l0 0c-7,0 -13,-6 -13,-13z"/>
  <path class="fil1" d="M2299 2145c0,-10 9,-18 19,-18l0 0c10,0 18,8 18,18l0 0c0,10 -8,19 -18,19l0 0c-10,0 -19,-9 -19,-19z"/>
  <path class="fil1" d="M2084 2145c0,-10 9,-18 19,-18l0 0c10,0 18,8 18,18l0 0c0,10 -8,19 -18,19l0 0c-10,0 -19,-9 -19,-19z"/>
  <path class="fil1" d="M1863 2145c0,-13 11,-24 24,-24l0 0c14,0 24,11 24,24l0 0c0,14 -10,24 -24,24l0 0c-13,0 -24,-10 -24,-24z"/>
  <path class="fil1" d="M1645 2145c0,-15 12,-28 27,-28l0 0c16,0 28,13 28,28l0 0c0,16 -12,28 -28,28l0 0c-15,0 -27,-12 -27,-28z"/>
  <path class="fil1" d="M1439 2145c0,-10 8,-18 18,-18l0 0c10,0 18,8 18,18l0 0c0,10 -8,18 -18,18l0 0c-10,0 -18,-8 -18,-18z"/>
  <path class="fil1" d="M1236 2145c0,-3 3,-6 6,-6l0 0c4,0 6,3 6,6l0 0c0,4 -2,6 -6,6l0 0c-3,0 -6,-2 -6,-6z"/>
  <path class="fil1" d="M1002 2145c0,-14 11,-25 25,-25l0 0c14,0 25,11 25,25l0 0c0,14 -11,25 -25,25l0 0c-14,0 -25,-11 -25,-25z"/>
  <path class="fil1" d="M796 2145c0,-9 7,-16 16,-16l0 0c9,0 16,7 16,16l0 0c0,9 -7,17 -16,17l0 0c-9,0 -16,-8 -16,-17z"/>
  <path class="fil1" d="M592 2145c0,-2 2,-4 5,-4l0 0c2,0 4,2 4,4l0 0c0,3 -2,5 -4,5l0 0c-3,0 -5,-2 -5,-5z"/>
  <path class="fil1" d="M358 2145c0,-13 11,-23 24,-23l0 0c13,0 23,10 23,23l0 0c0,13 -10,24 -23,24l0 0c-13,0 -24,-11 -24,-24z"/>
  <path class="fil1" d="M138 2145c0,-15 13,-28 29,-28l0 0c15,0 28,13 28,28l0 0c0,16 -13,29 -28,29l0 0c-16,0 -29,-13 -29,-29z"/>
  <path class="fil1" d="M-86 2145c0,-20 17,-37 37,-37l0 0c21,0 38,17 38,37l0 0c0,21 -17,38 -38,38l0 0c-20,0 -37,-17 -37,-38z"/>
  <path class="fil1" d="M-299 2145c0,-19 16,-35 35,-35l0 0c20,0 36,16 36,35l0 0c0,20 -16,36 -36,36l0 0c-19,0 -35,-16 -35,-36z"/>
  <path class="fil1" d="M-519 2145c0,-22 18,-40 40,-40l0 0c22,0 40,18 40,40l0 0c0,22 -18,40 -40,40l0 0c-22,0 -40,-18 -40,-40z"/>
  <path class="fil1" d="M-724 2145c0,-16 13,-30 30,-30l0 0c17,0 31,14 31,30l0 0c0,17 -14,31 -31,31l0 0c-17,0 -30,-14 -30,-31z"/>
  <path class="fil1" d="M-924 2145c0,-8 7,-15 15,-15l0 0c8,0 15,7 15,15l0 0c0,9 -7,15 -15,15l0 0c-8,0 -15,-6 -15,-15z"/>
  <path class="fil1" d="M-1138 2145c0,-7 6,-14 14,-14l0 0c8,0 14,7 14,14l0 0c0,8 -6,14 -14,14l0 0c-8,0 -14,-6 -14,-14z"/>
  <path class="fil1" d="M-1346 2145c0,-3 3,-6 7,-6l0 0c3,0 6,3 6,6l0 0c0,4 -3,7 -6,7l0 0c-4,0 -7,-3 -7,-7z"/>
  <path class="fil1" d="M-1595 2145c0,-22 18,-41 41,-41l0 0c22,0 41,19 41,41l0 0c0,23 -19,41 -41,41l0 0c-23,0 -41,-18 -41,-41z"/>
  <path class="fil1" d="M-1808 2145c0,-21 17,-38 39,-38l0 0c21,0 38,17 38,38l0 0c0,21 -17,39 -38,39l0 0c-22,0 -39,-18 -39,-39z"/>
  <path class="fil1" d="M-2023 2145c0,-21 17,-38 38,-38l0 0c21,0 38,17 38,38l0 0c0,21 -17,38 -38,38l0 0c-21,0 -38,-17 -38,-38z"/>
  <path class="fil1" d="M-2210 2145c0,-5 5,-10 10,-10l0 0c6,0 11,5 11,10l0 0c0,6 -5,11 -11,11l0 0c-5,0 -10,-5 -10,-11z"/>
  <path class="fil1" d="M4887 2175c-4,-1 -8,-4 -11,-7 -6,-6 -9,-14 -9,-23 0,-8 3,-16 9,-22 3,-4 7,-6 11,-8l0 60z"/>
  <path class="fil1" d="M-2403 1872l0 0c3,3 5,8 5,12 0,4 -2,8 -5,12l0 0 0 -24z"/>
  <path class="fil1" d="M4666 1884c0,-10 8,-18 18,-18l0 0c10,0 18,8 18,18l0 0c0,10 -8,18 -18,18l0 0c-10,0 -18,-8 -18,-18z"/>
  <path class="fil1" d="M4431 1884c0,-21 17,-38 38,-38l0 0c21,0 38,17 38,38l0 0c0,21 -17,38 -38,38l0 0c-21,0 -38,-17 -38,-38z"/>
  <path class="fil1" d="M4243 1884c0,-6 5,-11 11,-11l0 0c6,0 10,5 10,11l0 0c0,6 -4,10 -10,10l0 0c-6,0 -11,-4 -11,-10z"/>
  <path class="fil1" d="M4018 1884c0,-12 9,-21 21,-21l0 0c11,0 20,9 20,21l0 0c0,11 -9,21 -20,21l0 0c-12,0 -21,-10 -21,-21z"/>
  <path class="fil1" d="M3794 1884c0,-17 13,-30 30,-30l0 0c16,0 29,13 29,30l0 0c0,16 -13,30 -29,30l0 0c-17,0 -30,-14 -30,-30z"/>
  <path class="fil1" d="M3595 1884c0,-8 6,-14 13,-14l0 0c8,0 14,6 14,14l0 0c0,7 -6,13 -14,13l0 0c-7,0 -13,-6 -13,-13z"/>
  <path class="fil1" d="M3384 1884c0,-5 4,-9 9,-9l0 0c5,0 9,4 9,9l0 0c0,5 -4,9 -9,9l0 0c-5,0 -9,-4 -9,-9z"/>
  <path class="fil1" d="M3171 1884c0,-4 3,-7 7,-7l0 0c4,0 7,3 7,7l0 0c0,4 -3,7 -7,7l0 0c-4,0 -7,-3 -7,-7z"/>
  <path class="fil1" d="M2926 1884c0,-21 16,-38 37,-38l0 0c21,0 38,17 38,38l0 0c0,21 -17,37 -38,37l0 0c-21,0 -37,-16 -37,-37z"/>
  <path class="fil1" d="M2728 1884c0,-11 9,-20 20,-20l0 0c11,0 20,9 20,20l0 0c0,11 -9,20 -20,20l0 0c-11,0 -20,-9 -20,-20z"/>
  <path class="fil1" d="M2520 1884c0,-7 6,-13 13,-13l0 0c7,0 13,6 13,13l0 0c0,7 -6,13 -13,13l0 0c-7,0 -13,-6 -13,-13z"/>
  <path class="fil1" d="M2298 1884c0,-11 9,-20 20,-20l0 0c11,0 19,9 19,20l0 0c0,11 -8,20 -19,20l0 0c-11,0 -20,-9 -20,-20z"/>
  <path class="fil1" d="M2091 1884c0,-6 5,-12 12,-12l0 0c6,0 11,6 11,12l0 0c0,6 -5,11 -11,11l0 0c-7,0 -12,-5 -12,-11z"/>
  <path class="fil1" d="M1861 1884c0,-15 12,-27 26,-27l0 0c15,0 27,12 27,27l0 0c0,15 -12,26 -27,26l0 0c-14,0 -26,-11 -26,-26z"/>
  <path class="fil1" d="M1638 1884c0,-19 16,-34 34,-34l0 0c19,0 34,15 34,34l0 0c0,19 -15,34 -34,34l0 0c-18,0 -34,-15 -34,-34z"/>
  <path class="fil1" d="M1418 1884c0,-22 18,-39 39,-39l0 0c22,0 39,17 39,39l0 0c0,21 -17,39 -39,39l0 0c-21,0 -39,-18 -39,-39z"/>
  <path class="fil1" d="M1223 1884c0,-11 9,-19 19,-19l0 0c11,0 19,8 19,19l0 0c0,10 -8,19 -19,19l0 0c-10,0 -19,-9 -19,-19z"/>
  <path class="fil1" d="M1004 1884c0,-13 10,-23 23,-23l0 0c13,0 23,10 23,23l0 0c0,13 -10,23 -23,23l0 0c-13,0 -23,-10 -23,-23z"/>
  <path class="fil1" d="M795 1884c0,-9 8,-17 17,-17l0 0c9,0 16,8 16,17l0 0c0,9 -7,16 -16,16l0 0c-9,0 -17,-7 -17,-16z"/>
  <path class="fil1" d="M584 1884c0,-7 6,-13 13,-13l0 0c7,0 13,6 13,13l0 0c0,7 -6,13 -13,13l0 0c-7,0 -13,-6 -13,-13z"/>
  <path class="fil1" d="M358 1884c0,-13 10,-24 24,-24l0 0c13,0 24,11 24,24l0 0c0,13 -11,24 -24,24l0 0c-14,0 -24,-11 -24,-24z"/>
  <path class="fil1" d="M131 1884c0,-20 16,-36 36,-36l0 0c19,0 35,16 35,36l0 0c0,20 -16,35 -35,35l0 0c-20,0 -36,-15 -36,-35z"/>
  <path class="fil1" d="M-72 1884c0,-13 10,-24 23,-24l0 0c13,0 24,11 24,24l0 0c0,13 -11,23 -24,23l0 0c-13,0 -23,-10 -23,-23z"/>
  <path class="fil1" d="M-271 1884c0,-4 3,-7 7,-7l0 0c4,0 8,3 8,7l0 0c0,4 -4,7 -8,7l0 0c-4,0 -7,-3 -7,-7z"/>
  <path class="fil1" d="M-486 1884c0,-4 3,-8 7,-8l0 0c4,0 8,4 8,8l0 0c0,4 -4,7 -8,7l0 0c-4,0 -7,-3 -7,-7z"/>
  <path class="fil1" d="M-703 1884c0,-5 4,-9 9,-9l0 0c5,0 9,4 9,9l0 0c0,5 -4,9 -9,9l0 0c-5,0 -9,-4 -9,-9z"/>
  <path class="fil1" d="M-933 1884c0,-13 11,-24 24,-24l0 0c13,0 23,11 23,24l0 0c0,13 -10,23 -23,23l0 0c-13,0 -24,-10 -24,-23z"/>
  <path class="fil1" d="M-1146 1884c0,-12 10,-22 22,-22l0 0c12,0 22,10 22,22l0 0c0,12 -10,22 -22,22l0 0c-12,0 -22,-10 -22,-22z"/>
  <path class="fil1" d="M-1372 1884c0,-18 15,-33 33,-33l0 0c18,0 33,15 33,33l0 0c0,18 -15,33 -33,33l0 0c-18,0 -33,-15 -33,-33z"/>
  <path class="fil1" d="M-1583 1884c0,-16 13,-28 29,-28l0 0c15,0 28,12 28,28l0 0c0,15 -13,28 -28,28l0 0c-16,0 -29,-13 -29,-28z"/>
  <path class="fil1" d="M-1780 1884c0,-6 5,-11 11,-11l0 0c5,0 10,5 10,11l0 0c0,6 -5,10 -10,10l0 0c-6,0 -11,-4 -11,-10z"/>
  <path class="fil1" d="M-2014 1884c0,-17 13,-30 29,-30l0 0c17,0 30,13 30,30l0 0c0,16 -13,30 -30,30l0 0c-16,0 -29,-14 -29,-30z"/>
  <path class="fil1" d="M-2224 1884c0,-14 11,-24 24,-24l0 0c14,0 25,10 25,24l0 0c0,13 -11,24 -25,24l0 0c-13,0 -24,-11 -24,-24z"/>
  <path class="fil1" d="M4887 1916c-4,-2 -8,-5 -12,-8 -6,-6 -10,-15 -10,-24 0,-9 4,-18 10,-24 4,-4 8,-6 12,-8l0 64z"/>
  <path class="fil1" d="M4666 1622c0,-9 8,-17 18,-17l0 0c10,0 18,8 18,17l0 0c0,10 -8,18 -18,18l0 0c-10,0 -18,-8 -18,-18z"/>
  <path class="fil1" d="M4442 1622c0,-14 12,-26 27,-26l0 0c15,0 27,12 27,26l0 0c0,15 -12,27 -27,27l0 0c-15,0 -27,-12 -27,-27z"/>
  <path class="fil1" d="M4218 1622c0,-19 16,-35 36,-35l0 0c20,0 35,16 35,35l0 0c0,20 -15,36 -35,36l0 0c-20,0 -36,-16 -36,-36z"/>
  <path class="fil1" d="M4034 1622c0,-2 2,-4 5,-4l0 0c2,0 4,2 4,4l0 0c0,3 -2,5 -4,5l0 0c-3,0 -5,-2 -5,-5z"/>
  <path class="fil1" d="M3791 1622c0,-18 14,-33 33,-33l0 0c18,0 32,15 32,33l0 0c0,19 -14,33 -32,33l0 0c-19,0 -33,-14 -33,-33z"/>
  <path class="fil1" d="M3586 1622c0,-12 10,-22 22,-22l0 0c13,0 22,10 22,22l0 0c0,13 -9,22 -22,22l0 0c-12,0 -22,-9 -22,-22z"/>
  <path class="fil1" d="M3378 1622c0,-8 7,-15 15,-15l0 0c9,0 15,7 15,15l0 0c0,9 -6,16 -15,16l0 0c-8,0 -15,-7 -15,-16z"/>
  <path class="fil1" d="M3161 1622c0,-9 8,-17 17,-17l0 0c10,0 17,8 17,17l0 0c0,10 -7,17 -17,17l0 0c-9,0 -17,-7 -17,-17z"/>
  <path class="fil1" d="M2952 1622c0,-5 5,-10 11,-10l0 0c6,0 11,5 11,10l0 0c0,6 -5,11 -11,11l0 0c-6,0 -11,-5 -11,-11z"/>
  <path class="fil1" d="M2711 1622c0,-20 16,-37 37,-37l0 0c20,0 37,17 37,37l0 0c0,21 -17,38 -37,38l0 0c-21,0 -37,-17 -37,-38z"/>
  <path class="fil1" d="M2514 1622c0,-10 8,-19 19,-19l0 0c10,0 19,9 19,19l0 0c0,11 -9,20 -19,20l0 0c-11,0 -19,-9 -19,-20z"/>
  <path class="fil1" d="M2287 1622c0,-17 14,-30 31,-30l0 0c17,0 30,13 30,30l0 0c0,17 -13,31 -30,31l0 0c-17,0 -31,-14 -31,-31z"/>
  <path class="fil1" d="M2071 1622c0,-17 14,-31 32,-31l0 0c17,0 31,14 31,31l0 0c0,18 -14,32 -31,32l0 0c-18,0 -32,-14 -32,-32z"/>
  <path class="fil1" d="M1869 1622c0,-10 8,-18 18,-18l0 0c11,0 19,8 19,18l0 0c0,11 -8,19 -19,19l0 0c-10,0 -18,-8 -18,-19z"/>
  <path class="fil1" d="M1644 1622c0,-15 13,-28 28,-28l0 0c16,0 29,13 29,28l0 0c0,16 -13,29 -29,29l0 0c-15,0 -28,-13 -28,-29z"/>
  <path class="fil1" d="M1438 1622c0,-10 8,-19 19,-19l0 0c11,0 20,9 20,19l0 0c0,11 -9,20 -20,20l0 0c-11,0 -19,-9 -19,-20z"/>
  <path class="fil1" d="M1215 1622c0,-15 12,-27 27,-27l0 0c15,0 27,12 27,27l0 0c0,15 -12,28 -27,28l0 0c-15,0 -27,-13 -27,-28z"/>
  <path class="fil1" d="M1000 1622c0,-14 12,-26 27,-26l0 0c15,0 27,12 27,26l0 0c0,15 -12,27 -27,27l0 0c-15,0 -27,-12 -27,-27z"/>
  <path class="fil1" d="M775 1622c0,-20 16,-37 37,-37l0 0c20,0 37,17 37,37l0 0c0,21 -17,37 -37,37l0 0c-21,0 -37,-16 -37,-37z"/>
  <path class="fil1" d="M575 1622c0,-12 10,-21 22,-21l0 0c12,0 21,9 21,21l0 0c0,12 -9,22 -21,22l0 0c-12,0 -22,-10 -22,-22z"/>
  <path class="fil1" d="M370 1622c0,-6 5,-11 12,-11l0 0c6,0 11,5 11,11l0 0c0,7 -5,12 -11,12l0 0c-7,0 -12,-5 -12,-12z"/>
  <path class="fil1" d="M144 1622c0,-12 10,-22 23,-22l0 0c12,0 22,10 22,22l0 0c0,13 -10,23 -22,23l0 0c-13,0 -23,-10 -23,-23z"/>
  <path class="fil1" d="M-62 1622c0,-7 6,-13 13,-13l0 0c8,0 14,6 14,13l0 0c0,8 -6,14 -14,14l0 0c-7,0 -13,-6 -13,-14z"/>
  <path class="fil1" d="M-288 1622c0,-13 11,-24 24,-24l0 0c14,0 24,11 24,24l0 0c0,14 -10,24 -24,24l0 0c-13,0 -24,-10 -24,-24z"/>
  <path class="fil1" d="M-508 1622c0,-15 13,-28 29,-28l0 0c16,0 29,13 29,28l0 0c0,16 -13,29 -29,29l0 0c-16,0 -29,-13 -29,-29z"/>
  <path class="fil1" d="M-716 1622c0,-12 10,-21 22,-21l0 0c12,0 22,9 22,21l0 0c0,12 -10,22 -22,22l0 0c-12,0 -22,-10 -22,-22z"/>
  <path class="fil1" d="M-921 1622c0,-6 5,-11 12,-11l0 0c6,0 12,5 12,11l0 0c0,7 -6,12 -12,12l0 0c-7,0 -12,-5 -12,-12z"/>
  <path class="fil1" d="M-1142 1622c0,-10 8,-18 18,-18l0 0c10,0 18,8 18,18l0 0c0,10 -8,18 -18,18l0 0c-10,0 -18,-8 -18,-18z"/>
  <path class="fil1" d="M-1371 1622c0,-17 14,-32 32,-32l0 0c18,0 32,15 32,32l0 0c0,18 -14,33 -32,33l0 0c-18,0 -32,-15 -32,-33z"/>
  <path class="fil1" d="M-1580 1622c0,-14 12,-25 26,-25l0 0c14,0 25,11 25,25l0 0c0,14 -11,26 -25,26l0 0c-14,0 -26,-12 -26,-26z"/>
  <path class="fil1" d="M-1787 1622c0,-9 8,-17 18,-17l0 0c9,0 17,8 17,17l0 0c0,10 -8,18 -17,18l0 0c-10,0 -18,-8 -18,-18z"/>
  <path class="fil1" d="M-2011 1622c0,-14 12,-26 26,-26l0 0c15,0 27,12 27,26l0 0c0,15 -12,27 -27,27l0 0c-14,0 -26,-12 -26,-27z"/>
  <path class="fil1" d="M-2207 1622c0,-4 3,-7 7,-7l0 0c4,0 7,3 7,7l0 0c0,4 -3,7 -7,7l0 0c-4,0 -7,-3 -7,-7z"/>
  <path class="fil1" d="M4887 1656c-5,-2 -9,-5 -13,-9 -6,-6 -10,-15 -10,-25 0,-9 4,-18 10,-25 4,-3 8,-6 13,-8l0 67z"/>
  <path class="fil1" d="M-2403 1345c0,1 1,1 2,2 4,4 6,9 6,14 0,5 -2,10 -6,14 -1,0 -2,1 -2,2l0 -32z"/>
  <path class="fil1" d="M4657 1361c0,-15 12,-27 27,-27l0 0c15,0 27,12 27,27l0 0c0,15 -12,27 -27,27l0 0c-15,0 -27,-12 -27,-27z"/>
  <path class="fil1" d="M4455 1361c0,-8 6,-14 14,-14l0 0c8,0 14,6 14,14l0 0c0,8 -6,14 -14,14l0 0c-8,0 -14,-6 -14,-14z"/>
  <path class="fil1" d="M4218 1361c0,-20 16,-36 36,-36l0 0c20,0 36,16 36,36l0 0c0,20 -16,36 -36,36l0 0c-20,0 -36,-16 -36,-36z"/>
  <path class="fil1" d="M4003 1361c0,-20 16,-36 36,-36l0 0c20,0 36,16 36,36l0 0c0,20 -16,36 -36,36l0 0c-20,0 -36,-16 -36,-36z"/>
  <path class="fil1" d="M3809 1361c0,-8 7,-14 15,-14l0 0c7,0 14,6 14,14l0 0c0,8 -7,14 -14,14l0 0c-8,0 -15,-6 -15,-14z"/>
  <path class="fil1" d="M3599 1361c0,-5 4,-10 9,-10l0 0c6,0 10,5 10,10l0 0c0,5 -4,10 -10,10l0 0c-5,0 -9,-5 -9,-10z"/>
  <path class="fil1" d="M3386 1361c0,-4 3,-7 7,-7l0 0c4,0 7,3 7,7l0 0c0,4 -3,7 -7,7l0 0c-4,0 -7,-3 -7,-7z"/>
  <path class="fil1" d="M3141 1361c0,-21 17,-37 37,-37l0 0c21,0 37,16 37,37l0 0c0,20 -16,37 -37,37l0 0c-20,0 -37,-17 -37,-37z"/>
  <path class="fil1" d="M2946 1361c0,-10 7,-18 17,-18l0 0c10,0 18,8 18,18l0 0c0,10 -8,17 -18,17l0 0c-10,0 -17,-7 -17,-17z"/>
  <path class="fil1" d="M2712 1361c0,-20 16,-36 36,-36l0 0c20,0 36,16 36,36l0 0c0,20 -16,36 -36,36l0 0c-20,0 -36,-16 -36,-36z"/>
  <path class="fil1" d="M2522 1361c0,-6 5,-11 11,-11l0 0c6,0 11,5 11,11l0 0c0,6 -5,11 -11,11l0 0c-6,0 -11,-5 -11,-11z"/>
  <path class="fil1" d="M2296 1361c0,-12 10,-22 22,-22l0 0c12,0 22,10 22,22l0 0c0,12 -10,22 -22,22l0 0c-12,0 -22,-10 -22,-22z"/>
  <path class="fil1" d="M2075 1361c0,-15 12,-28 28,-28l0 0c15,0 27,13 27,28l0 0c0,15 -12,27 -27,27l0 0c-16,0 -28,-12 -28,-27z"/>
  <path class="fil1" d="M1881 1361c0,-4 3,-6 6,-6l0 0c4,0 7,2 7,6l0 0c0,3 -3,6 -7,6l0 0c-3,0 -6,-3 -6,-6z"/>
  <path class="fil1" d="M1655 1361c0,-10 8,-18 17,-18l0 0c10,0 18,8 18,18l0 0c0,10 -8,17 -18,17l0 0c-9,0 -17,-7 -17,-17z"/>
  <path class="fil1" d="M1440 1361c0,-10 8,-17 17,-17l0 0c10,0 18,7 18,17l0 0c0,10 -8,17 -18,17l0 0c-9,0 -17,-7 -17,-17z"/>
  <path class="fil1" d="M1225 1361c0,-10 8,-17 17,-17l0 0c10,0 17,7 17,17l0 0c0,9 -7,17 -17,17l0 0c-9,0 -17,-8 -17,-17z"/>
  <path class="fil1" d="M1019 1361c0,-4 4,-8 8,-8l0 0c4,0 8,4 8,8l0 0c0,4 -4,8 -8,8l0 0c-4,0 -8,-4 -8,-8z"/>
  <path class="fil1" d="M807 1361c0,-3 2,-5 5,-5l0 0c3,0 5,2 5,5l0 0c0,3 -2,5 -5,5l0 0c-3,0 -5,-2 -5,-5z"/>
  <path class="fil1" d="M575 1361c0,-12 10,-22 22,-22l0 0c12,0 22,10 22,22l0 0c0,12 -10,22 -22,22l0 0c-12,0 -22,-10 -22,-22z"/>
  <path class="fil1" d="M351 1361c0,-17 14,-31 31,-31l0 0c17,0 31,14 31,31l0 0c0,17 -14,31 -31,31l0 0c-17,0 -31,-14 -31,-31z"/>
  <path class="fil1" d="M140 1361c0,-15 12,-26 27,-26l0 0c14,0 26,11 26,26l0 0c0,14 -12,26 -26,26l0 0c-15,0 -27,-12 -27,-26z"/>
  <path class="fil1" d="M-89 1361c0,-22 18,-41 40,-41l0 0c23,0 41,19 41,41l0 0c0,22 -18,40 -41,40l0 0c-22,0 -40,-18 -40,-40z"/>
  <path class="fil1" d="M-286 1361c0,-12 10,-22 22,-22l0 0c13,0 23,10 23,22l0 0c0,12 -10,22 -23,22l0 0c-12,0 -22,-10 -22,-22z"/>
  <path class="fil1" d="M-497 1361c0,-10 8,-18 18,-18l0 0c10,0 18,8 18,18l0 0c0,10 -8,18 -18,18l0 0c-10,0 -18,-8 -18,-18z"/>
  <path class="fil1" d="M-720 1361c0,-15 12,-26 26,-26l0 0c14,0 26,11 26,26l0 0c0,14 -12,26 -26,26l0 0c-14,0 -26,-12 -26,-26z"/>
  <path class="fil1" d="M-938 1361c0,-16 13,-29 29,-29l0 0c16,0 29,13 29,29l0 0c0,16 -13,29 -29,29l0 0c-16,0 -29,-13 -29,-29z"/>
  <path class="fil1" d="M-1161 1361c0,-20 17,-37 37,-37l0 0c20,0 37,17 37,37l0 0c0,20 -17,37 -37,37l0 0c-20,0 -37,-17 -37,-37z"/>
  <path class="fil1" d="M-1349 1361c0,-5 4,-10 10,-10l0 0c5,0 9,5 9,10l0 0c0,5 -4,10 -9,10l0 0c-6,0 -10,-5 -10,-10z"/>
  <path class="fil1" d="M-1589 1361c0,-19 15,-35 35,-35l0 0c19,0 34,16 34,35l0 0c0,19 -15,35 -34,35l0 0c-20,0 -35,-16 -35,-35z"/>
  <path class="fil1" d="M-1810 1361c0,-22 18,-40 41,-40l0 0c22,0 40,18 40,40l0 0c0,22 -18,40 -40,40l0 0c-23,0 -41,-18 -41,-40z"/>
  <path class="fil1" d="M-2023 1361c0,-21 17,-38 38,-38l0 0c21,0 39,17 39,38l0 0c0,21 -18,38 -39,38l0 0c-21,0 -38,-17 -38,-38z"/>
  <path class="fil1" d="M-2223 1361c0,-13 10,-23 23,-23l0 0c13,0 24,10 24,23l0 0c0,13 -11,23 -24,23l0 0c-13,0 -23,-10 -23,-23z"/>
  <path class="fil1" d="M4887 1386c-2,-2 -5,-4 -7,-6 -5,-5 -8,-12 -8,-19 0,-7 3,-14 8,-19 2,-3 5,-4 7,-6l0 50z"/>
  <path class="fil1" d="M-2403 1075c3,1 5,3 8,5 5,5 8,12 8,19 0,8 -3,15 -8,20 -3,2 -5,4 -8,5l0 -49z"/>
  <path class="fil1" d="M4648 1099c0,-19 16,-35 36,-35l0 0c20,0 36,16 36,35l0 0c0,20 -16,36 -36,36l0 0c-20,0 -36,-16 -36,-36z"/>
  <path class="fil1" d="M4459 1099c0,-5 4,-10 10,-10l0 0c5,0 10,5 10,10l0 0c0,6 -5,11 -10,11l0 0c-6,0 -10,-5 -10,-11z"/>
  <path class="fil1" d="M4215 1099c0,-21 17,-38 39,-38l0 0c21,0 39,17 39,38l0 0c0,22 -18,39 -39,39l0 0c-22,0 -39,-17 -39,-39z"/>
  <path class="fil1" d="M4000 1099c0,-21 17,-38 39,-38l0 0c21,0 38,17 38,38l0 0c0,22 -17,39 -38,39l0 0c-22,0 -39,-17 -39,-39z"/>
  <path class="fil1" d="M3808 1099c0,-8 7,-15 16,-15l0 0c8,0 15,7 15,15l0 0c0,9 -7,15 -15,15l0 0c-9,0 -16,-6 -16,-15z"/>
  <path class="fil1" d="M3589 1099c0,-10 9,-19 19,-19l0 0c11,0 19,9 19,19l0 0c0,11 -8,20 -19,20l0 0c-10,0 -19,-9 -19,-20z"/>
  <path class="fil1" d="M3370 1099c0,-12 11,-22 23,-22l0 0c13,0 23,10 23,22l0 0c0,13 -10,23 -23,23l0 0c-12,0 -23,-10 -23,-23z"/>
  <path class="fil1" d="M3164 1099c0,-7 6,-14 14,-14l0 0c8,0 14,7 14,14l0 0c0,8 -6,15 -14,15l0 0c-8,0 -14,-7 -14,-15z"/>
  <path class="fil1" d="M2932 1099c0,-16 14,-30 31,-30l0 0c17,0 31,14 31,30l0 0c0,17 -14,31 -31,31l0 0c-17,0 -31,-14 -31,-31z"/>
  <path class="fil1" d="M2717 1099c0,-17 14,-31 31,-31l0 0c17,0 31,14 31,31l0 0c0,18 -14,32 -31,32l0 0c-17,0 -31,-14 -31,-32z"/>
  <path class="fil1" d="M2525 1099c0,-4 3,-7 8,-7l0 0c4,0 8,3 8,7l0 0c0,5 -4,8 -8,8l0 0c-5,0 -8,-3 -8,-8z"/>
  <path class="fil1" d="M2299 1099c0,-10 9,-18 19,-18l0 0c10,0 18,8 18,18l0 0c0,10 -8,19 -18,19l0 0c-10,0 -19,-9 -19,-19z"/>
  <path class="fil1" d="M2075 1099c0,-15 12,-27 28,-27l0 0c15,0 27,12 27,27l0 0c0,16 -12,28 -27,28l0 0c-16,0 -28,-12 -28,-28z"/>
  <path class="fil1" d="M1852 1099c0,-19 16,-35 35,-35l0 0c20,0 35,16 35,35l0 0c0,20 -15,35 -35,35l0 0c-19,0 -35,-15 -35,-35z"/>
  <path class="fil1" d="M1649 1099c0,-13 10,-23 23,-23l0 0c13,0 24,10 24,23l0 0c0,13 -11,24 -24,24l0 0c-13,0 -23,-11 -23,-24z"/>
  <path class="fil1" d="M1422 1099c0,-19 16,-35 35,-35l0 0c20,0 35,16 35,35l0 0c0,20 -15,36 -35,36l0 0c-19,0 -35,-16 -35,-36z"/>
  <path class="fil1" d="M1227 1099c0,-8 7,-15 15,-15l0 0c9,0 16,7 16,15l0 0c0,9 -7,16 -16,16l0 0c-8,0 -15,-7 -15,-16z"/>
  <path class="fil1" d="M1007 1099c0,-11 9,-20 20,-20l0 0c11,0 20,9 20,20l0 0c0,11 -9,20 -20,20l0 0c-11,0 -20,-9 -20,-20z"/>
  <path class="fil1" d="M788 1099c0,-13 11,-23 24,-23l0 0c13,0 23,10 23,23l0 0c0,13 -10,24 -23,24l0 0c-13,0 -24,-11 -24,-24z"/>
  <path class="fil1" d="M582 1099c0,-8 6,-15 15,-15l0 0c8,0 15,7 15,15l0 0c0,9 -7,15 -15,15l0 0c-9,0 -15,-6 -15,-15z"/>
  <path class="fil1" d="M357 1099c0,-13 11,-25 25,-25l0 0c14,0 25,12 25,25l0 0c0,14 -11,26 -25,26l0 0c-14,0 -25,-12 -25,-26z"/>
  <path class="fil1" d="M126 1099c0,-22 18,-40 41,-40l0 0c22,0 40,18 40,40l0 0c0,23 -18,41 -40,41l0 0c-23,0 -41,-18 -41,-41z"/>
  <path class="fil1" d="M-73 1099c0,-13 11,-24 24,-24l0 0c14,0 25,11 25,24l0 0c0,14 -11,25 -25,25l0 0c-13,0 -24,-11 -24,-25z"/>
  <path class="fil1" d="M-285 1099c0,-11 10,-20 21,-20l0 0c12,0 21,9 21,20l0 0c0,12 -9,21 -21,21l0 0c-11,0 -21,-9 -21,-21z"/>
  <path class="fil1" d="M-492 1099c0,-7 6,-13 13,-13l0 0c7,0 13,6 13,13l0 0c0,8 -6,14 -13,14l0 0c-7,0 -13,-6 -13,-14z"/>
  <path class="fil1" d="M-709 1099c0,-8 7,-15 15,-15l0 0c9,0 16,7 16,15l0 0c0,9 -7,16 -16,16l0 0c-8,0 -15,-7 -15,-16z"/>
  <path class="fil1" d="M-931 1099c0,-12 10,-22 22,-22l0 0c12,0 22,10 22,22l0 0c0,13 -10,22 -22,22l0 0c-12,0 -22,-9 -22,-22z"/>
  <path class="fil1" d="M-1158 1099c0,-18 15,-34 34,-34l0 0c19,0 34,16 34,34l0 0c0,19 -15,34 -34,34l0 0c-19,0 -34,-15 -34,-34z"/>
  <path class="fil1" d="M-1375 1099c0,-19 16,-35 36,-35l0 0c19,0 35,16 35,35l0 0c0,20 -16,36 -35,36l0 0c-20,0 -36,-16 -36,-36z"/>
  <path class="fil1" d="M-1595 1099c0,-22 18,-40 41,-40l0 0c22,0 40,18 40,40l0 0c0,23 -18,41 -40,41l0 0c-23,0 -41,-18 -41,-41z"/>
  <path class="fil1" d="M-1791 1099c0,-11 10,-21 22,-21l0 0c11,0 21,10 21,21l0 0c0,12 -10,22 -21,22l0 0c-12,0 -22,-10 -22,-22z"/>
  <path class="fil1" d="M-2004 1099c0,-10 9,-19 19,-19l0 0c11,0 20,9 20,19l0 0c0,11 -9,20 -20,20l0 0c-10,0 -19,-9 -19,-20z"/>
  <path class="fil1" d="M-2218 1099c0,-10 8,-18 18,-18l0 0c11,0 19,8 19,18l0 0c0,11 -8,19 -19,19l0 0c-10,0 -18,-8 -18,-19z"/>
  <path class="fil1" d="M4887 1113c0,0 0,-1 0,-1 -4,-3 -6,-8 -6,-13 0,-4 2,-9 6,-12 0,0 0,-1 0,-1l0 27z"/>
  <path class="fil1" d="M4657 838c0,-15 12,-27 27,-27l0 0c15,0 27,12 27,27l0 0c0,15 -12,27 -27,27l0 0c-15,0 -27,-12 -27,-27z"/>
  <path class="fil1" d="M4430 838c0,-22 17,-39 39,-39l0 0c22,0 39,17 39,39l0 0c0,22 -17,39 -39,39l0 0c-22,0 -39,-17 -39,-39z"/>
  <path class="fil1" d="M4217 838c0,-20 17,-37 37,-37l0 0c20,0 36,17 36,37l0 0c0,20 -16,37 -36,37l0 0c-20,0 -37,-17 -37,-37z"/>
  <path class="fil1" d="M4030 838c0,-5 4,-8 9,-8l0 0c4,0 8,3 8,8l0 0c0,5 -4,8 -8,8l0 0c-5,0 -9,-3 -9,-8z"/>
  <path class="fil1" d="M3784 838c0,-22 18,-39 40,-39l0 0c21,0 39,17 39,39l0 0c0,22 -18,39 -39,39l0 0c-22,0 -40,-17 -40,-39z"/>
  <path class="fil1" d="M3592 838c0,-9 7,-17 16,-17l0 0c10,0 17,8 17,17l0 0c0,9 -7,17 -17,17l0 0c-9,0 -16,-8 -16,-17z"/>
  <path class="fil1" d="M3379 838c0,-8 6,-14 14,-14l0 0c8,0 15,6 15,14l0 0c0,8 -7,14 -15,14l0 0c-8,0 -14,-6 -14,-14z"/>
  <path class="fil1" d="M3169 838c0,-5 4,-9 9,-9l0 0c5,0 9,4 9,9l0 0c0,5 -4,9 -9,9l0 0c-5,0 -9,-4 -9,-9z"/>
  <path class="fil1" d="M2926 838c0,-20 17,-37 37,-37l0 0c20,0 37,17 37,37l0 0c0,20 -17,37 -37,37l0 0c-20,0 -37,-17 -37,-37z"/>
  <path class="fil1" d="M2723 838c0,-14 11,-25 25,-25l0 0c13,0 24,11 24,25l0 0c0,13 -11,24 -24,24l0 0c-14,0 -25,-11 -25,-24z"/>
  <path class="fil1" d="M2508 838c0,-14 11,-25 25,-25l0 0c13,0 24,11 24,25l0 0c0,14 -11,25 -24,25l0 0c-14,0 -25,-11 -25,-25z"/>
  <path class="fil1" d="M2285 838c0,-18 15,-33 33,-33l0 0c18,0 32,15 32,33l0 0c0,18 -14,33 -32,33l0 0c-18,0 -33,-15 -33,-33z"/>
  <path class="fil1" d="M2071 838c0,-18 14,-32 32,-32l0 0c17,0 32,14 32,32l0 0c0,18 -15,32 -32,32l0 0c-18,0 -32,-14 -32,-32z"/>
  <path class="fil1" d="M1862 838c0,-14 12,-25 25,-25l0 0c14,0 26,11 26,25l0 0c0,14 -12,25 -26,25l0 0c-13,0 -25,-11 -25,-25z"/>
  <path class="fil1" d="M1662 838c0,-6 5,-11 10,-11l0 0c6,0 11,5 11,11l0 0c0,6 -5,10 -11,10l0 0c-5,0 -10,-4 -10,-10z"/>
  <path class="fil1" d="M1431 838c0,-14 12,-26 26,-26l0 0c14,0 26,12 26,26l0 0c0,14 -12,26 -26,26l0 0c-14,0 -26,-12 -26,-26z"/>
  <path class="fil1" d="M1234 838c0,-5 3,-9 8,-9l0 0c5,0 9,4 9,9l0 0c0,5 -4,9 -9,9l0 0c-5,0 -8,-4 -8,-9z"/>
  <path class="fil1" d="M1016 838c0,-6 5,-11 11,-11l0 0c6,0 11,5 11,11l0 0c0,6 -5,11 -11,11l0 0c-6,0 -11,-5 -11,-11z"/>
  <path class="fil1" d="M785 838c0,-15 12,-27 27,-27l0 0c15,0 27,12 27,27l0 0c0,15 -12,27 -27,27l0 0c-15,0 -27,-12 -27,-27z"/>
  <path class="fil1" d="M579 838c0,-10 8,-18 18,-18l0 0c10,0 18,8 18,18l0 0c0,10 -8,18 -18,18l0 0c-10,0 -18,-8 -18,-18z"/>
  <path class="fil1" d="M377 838c0,-3 2,-5 5,-5l0 0c2,0 5,2 5,5l0 0c0,3 -3,5 -5,5l0 0c-3,0 -5,-2 -5,-5z"/>
  <path class="fil1" d="M144 838c0,-12 10,-22 23,-22l0 0c12,0 22,10 22,22l0 0c0,12 -10,22 -22,22l0 0c-13,0 -23,-10 -23,-22z"/>
  <path class="fil1" d="M-75 838c0,-15 12,-27 26,-27l0 0c15,0 27,12 27,27l0 0c0,15 -12,27 -27,27l0 0c-14,0 -26,-12 -26,-27z"/>
  <path class="fil1" d="M-287 838c0,-13 10,-24 23,-24l0 0c13,0 24,11 24,24l0 0c0,13 -11,24 -24,24l0 0c-13,0 -23,-11 -23,-24z"/>
  <path class="fil1" d="M-508 838c0,-16 13,-29 29,-29l0 0c16,0 29,13 29,29l0 0c0,16 -13,29 -29,29l0 0c-16,0 -29,-13 -29,-29z"/>
  <path class="fil1" d="M-706 838c0,-7 6,-12 12,-12l0 0c7,0 12,5 12,12l0 0c0,6 -5,12 -12,12l0 0c-6,0 -12,-6 -12,-12z"/>
  <path class="fil1" d="M-916 838c0,-4 3,-7 7,-7l0 0c4,0 7,3 7,7l0 0c0,4 -3,7 -7,7l0 0c-4,0 -7,-3 -7,-7z"/>
  <path class="fil1" d="M-1156 838c0,-18 14,-32 32,-32l0 0c17,0 32,14 32,32l0 0c0,18 -15,32 -32,32l0 0c-18,0 -32,-14 -32,-32z"/>
  <path class="fil1" d="M-1352 838c0,-7 6,-12 13,-12l0 0c6,0 12,5 12,12l0 0c0,7 -6,12 -12,12l0 0c-7,0 -13,-5 -13,-12z"/>
  <path class="fil1" d="M-1565 838c0,-6 5,-10 11,-10l0 0c5,0 10,4 10,10l0 0c0,6 -5,10 -10,10l0 0c-6,0 -11,-4 -11,-10z"/>
  <path class="fil1" d="M-1798 838c0,-16 13,-29 29,-29l0 0c15,0 28,13 28,29l0 0c0,16 -13,29 -28,29l0 0c-16,0 -29,-13 -29,-29z"/>
  <path class="fil1" d="M-2015 838c0,-17 14,-30 30,-30l0 0c17,0 31,13 31,30l0 0c0,17 -14,30 -31,30l0 0c-16,0 -30,-13 -30,-30z"/>
  <path class="fil1" d="M-2224 838c0,-14 11,-25 24,-25l0 0c14,0 25,11 25,25l0 0c0,13 -11,24 -25,24l0 0c-13,0 -24,-11 -24,-24z"/>
  <path class="fil1" d="M-2403 545c4,2 8,4 12,8 6,6 10,15 10,23 0,9 -4,18 -10,24 -4,4 -8,6 -12,8l0 -63z"/>
  <path class="fil1" d="M4678 576c0,-3 3,-5 6,-5l0 0c3,0 6,2 6,5l0 0c0,4 -3,6 -6,6l0 0c-3,0 -6,-2 -6,-6z"/>
  <path class="fil1" d="M4454 576c0,-8 7,-14 15,-14l0 0c8,0 14,6 14,14l0 0c0,8 -6,15 -14,15l0 0c-8,0 -15,-7 -15,-15z"/>
  <path class="fil1" d="M4246 576c0,-4 4,-7 8,-7l0 0c4,0 7,3 7,7l0 0c0,5 -3,8 -7,8l0 0c-4,0 -8,-3 -8,-8z"/>
  <path class="fil1" d="M4013 576c0,-14 12,-25 26,-25l0 0c14,0 25,11 25,25l0 0c0,15 -11,26 -25,26l0 0c-14,0 -26,-11 -26,-26z"/>
  <path class="fil1" d="M3806 576c0,-9 8,-17 18,-17l0 0c9,0 17,8 17,17l0 0c0,10 -8,18 -17,18l0 0c-10,0 -18,-8 -18,-18z"/>
  <path class="fil1" d="M3574 576c0,-18 16,-33 34,-33l0 0c19,0 34,15 34,33l0 0c0,19 -15,34 -34,34l0 0c-18,0 -34,-15 -34,-34z"/>
  <path class="fil1" d="M3379 576c0,-8 6,-14 14,-14l0 0c8,0 15,6 15,14l0 0c0,8 -7,15 -15,15l0 0c-8,0 -14,-7 -14,-15z"/>
  <path class="fil1" d="M3168 576c0,-5 5,-9 10,-9l0 0c6,0 10,4 10,9l0 0c0,6 -4,10 -10,10l0 0c-5,0 -10,-4 -10,-10z"/>
  <path class="fil1" d="M2949 576c0,-7 6,-13 14,-13l0 0c8,0 14,6 14,13l0 0c0,8 -6,14 -14,14l0 0c-8,0 -14,-6 -14,-14z"/>
  <path class="fil1" d="M2725 576c0,-12 10,-23 23,-23l0 0c13,0 23,11 23,23l0 0c0,13 -10,23 -23,23l0 0c-13,0 -23,-10 -23,-23z"/>
  <path class="fil1" d="M2504 576c0,-15 13,-28 29,-28l0 0c15,0 28,13 28,28l0 0c0,16 -13,29 -28,29l0 0c-16,0 -29,-13 -29,-29z"/>
  <path class="fil1" d="M2303 576c0,-8 7,-14 15,-14l0 0c8,0 14,6 14,14l0 0c0,8 -6,15 -14,15l0 0c-8,0 -15,-7 -15,-15z"/>
  <path class="fil1" d="M2076 576c0,-14 12,-26 27,-26l0 0c14,0 26,12 26,26l0 0c0,15 -12,27 -26,27l0 0c-15,0 -27,-12 -27,-27z"/>
  <path class="fil1" d="M1865 576c0,-12 10,-22 22,-22l0 0c13,0 23,10 23,22l0 0c0,13 -10,23 -23,23l0 0c-12,0 -22,-10 -22,-23z"/>
  <path class="fil1" d="M1640 576c0,-18 14,-32 32,-32l0 0c18,0 33,14 33,32l0 0c0,19 -15,33 -33,33l0 0c-18,0 -32,-14 -32,-33z"/>
  <path class="fil1" d="M1439 576c0,-10 8,-18 18,-18l0 0c10,0 19,8 19,18l0 0c0,11 -9,19 -19,19l0 0c-10,0 -18,-8 -18,-19z"/>
  <path class="fil1" d="M1223 576c0,-10 9,-19 19,-19l0 0c11,0 19,9 19,19l0 0c0,11 -8,20 -19,20l0 0c-10,0 -19,-9 -19,-20z"/>
  <path class="fil1" d="M1021 576c0,-3 3,-5 6,-5l0 0c3,0 6,2 6,5l0 0c0,4 -3,6 -6,6l0 0c-3,0 -6,-2 -6,-6z"/>
  <path class="fil1" d="M782 576c0,-16 13,-30 30,-30l0 0c17,0 30,14 30,30l0 0c0,17 -13,31 -30,31l0 0c-17,0 -30,-14 -30,-31z"/>
  <path class="fil1" d="M563 576c0,-18 15,-33 34,-33l0 0c18,0 34,15 34,33l0 0c0,19 -16,34 -34,34l0 0c-19,0 -34,-15 -34,-34z"/>
  <path class="fil1" d="M376 576c0,-3 2,-5 6,-5l0 0c3,0 5,2 5,5l0 0c0,4 -2,6 -5,6l0 0c-4,0 -6,-2 -6,-6z"/>
  <path class="fil1" d="M144 576c0,-12 10,-22 23,-22l0 0c12,0 22,10 22,22l0 0c0,13 -10,23 -22,23l0 0c-13,0 -23,-10 -23,-23z"/>
  <path class="fil1" d="M-76 576c0,-14 13,-27 27,-27l0 0c15,0 27,13 27,27l0 0c0,15 -12,27 -27,27l0 0c-14,0 -27,-12 -27,-27z"/>
  <path class="fil1" d="M-288 576c0,-13 11,-24 24,-24l0 0c14,0 25,11 25,24l0 0c0,14 -11,25 -25,25l0 0c-13,0 -24,-11 -24,-25z"/>
  <path class="fil1" d="M-519 576c0,-22 18,-40 40,-40l0 0c22,0 40,18 40,40l0 0c0,23 -18,40 -40,40l0 0c-22,0 -40,-17 -40,-40z"/>
  <path class="fil1" d="M-729 576c0,-19 16,-34 35,-34l0 0c19,0 35,15 35,34l0 0c0,20 -16,35 -35,35l0 0c-19,0 -35,-15 -35,-35z"/>
  <path class="fil1" d="M-918 576c0,-4 4,-8 9,-8l0 0c5,0 9,4 9,8l0 0c0,5 -4,9 -9,9l0 0c-5,0 -9,-4 -9,-9z"/>
  <path class="fil1" d="M-1161 576c0,-20 16,-37 37,-37l0 0c20,0 37,17 37,37l0 0c0,21 -17,38 -37,38l0 0c-21,0 -37,-17 -37,-38z"/>
  <path class="fil1" d="M-1368 576c0,-15 13,-28 29,-28l0 0c16,0 28,13 28,28l0 0c0,16 -12,29 -28,29l0 0c-16,0 -29,-13 -29,-29z"/>
  <path class="fil1" d="M-1566 576c0,-6 5,-11 12,-11l0 0c6,0 11,5 11,11l0 0c0,7 -5,12 -11,12l0 0c-7,0 -12,-5 -12,-12z"/>
  <path class="fil1" d="M-1780 576c0,-6 4,-10 11,-10l0 0c6,0 10,4 10,10l0 0c0,6 -4,11 -10,11l0 0c-7,0 -11,-5 -11,-11z"/>
  <path class="fil1" d="M-1996 576c0,-6 5,-11 11,-11l0 0c7,0 12,5 12,11l0 0c0,7 -5,12 -12,12l0 0c-6,0 -11,-5 -11,-12z"/>
  <path class="fil1" d="M-2218 576c0,-10 8,-18 18,-18l0 0c11,0 19,8 19,18l0 0c0,11 -8,19 -19,19l0 0c-10,0 -18,-8 -18,-19z"/>
  <path class="fil1" d="M4887 613c-5,-2 -11,-5 -15,-9 -7,-7 -11,-17 -11,-28 0,-10 4,-20 11,-27 4,-4 10,-7 15,-9l0 73z"/>
  <path class="fil1" d="M-2403 283c5,1 9,4 13,8 6,6 10,15 10,24 0,9 -4,18 -10,24 -4,4 -8,7 -13,8l0 -64z"/>
  <path class="fil1" d="M4673 315c0,-6 5,-11 11,-11l0 0c6,0 11,5 11,11l0 0c0,6 -5,11 -11,11l0 0c-6,0 -11,-5 -11,-11z"/>
  <path class="fil1" d="M4462 315c0,-4 3,-7 7,-7l0 0c4,0 7,3 7,7l0 0c0,4 -3,7 -7,7l0 0c-4,0 -7,-3 -7,-7z"/>
  <path class="fil1" d="M4228 315c0,-14 12,-25 26,-25l0 0c14,0 25,11 25,25l0 0c0,14 -11,25 -25,25l0 0c-14,0 -26,-11 -26,-25z"/>
  <path class="fil1" d="M4017 315c0,-12 10,-21 22,-21l0 0c11,0 21,9 21,21l0 0c0,12 -10,21 -21,21l0 0c-12,0 -22,-9 -22,-21z"/>
  <path class="fil1" d="M3794 315c0,-16 13,-29 30,-29l0 0c16,0 29,13 29,29l0 0c0,16 -13,29 -29,29l0 0c-17,0 -30,-13 -30,-29z"/>
  <path class="fil1" d="M3593 315c0,-9 7,-16 15,-16l0 0c9,0 16,7 16,16l0 0c0,9 -7,16 -16,16l0 0c-8,0 -15,-7 -15,-16z"/>
  <path class="fil1" d="M3356 315c0,-21 17,-37 37,-37l0 0c21,0 37,16 37,37l0 0c0,21 -16,37 -37,37l0 0c-20,0 -37,-16 -37,-37z"/>
  <path class="fil1" d="M3163 315c0,-8 7,-15 15,-15l0 0c8,0 15,7 15,15l0 0c0,8 -7,15 -15,15l0 0c-8,0 -15,-7 -15,-15z"/>
  <path class="fil1" d="M2931 315c0,-17 15,-32 32,-32l0 0c18,0 32,15 32,32l0 0c0,17 -14,32 -32,32l0 0c-17,0 -32,-15 -32,-32z"/>
  <path class="fil1" d="M2738 315c0,-6 4,-10 10,-10l0 0c6,0 10,4 10,10l0 0c0,6 -4,10 -10,10l0 0c-6,0 -10,-4 -10,-10z"/>
  <path class="fil1" d="M2520 315c0,-7 6,-12 13,-12l0 0c7,0 12,5 12,12l0 0c0,7 -5,12 -12,12l0 0c-7,0 -13,-5 -13,-12z"/>
  <path class="fil1" d="M2295 315c0,-12 10,-22 23,-22l0 0c12,0 22,10 22,22l0 0c0,12 -10,22 -22,22l0 0c-13,0 -23,-10 -23,-22z"/>
  <path class="fil1" d="M2084 315c0,-10 9,-18 19,-18l0 0c10,0 18,8 18,18l0 0c0,10 -8,18 -18,18l0 0c-10,0 -19,-8 -19,-18z"/>
  <path class="fil1" d="M1861 315c0,-14 12,-26 26,-26l0 0c15,0 27,12 27,26l0 0c0,14 -12,26 -27,26l0 0c-14,0 -26,-12 -26,-26z"/>
  <path class="fil1" d="M1652 315c0,-11 9,-21 20,-21l0 0c12,0 21,10 21,21l0 0c0,11 -9,21 -21,21l0 0c-11,0 -20,-10 -20,-21z"/>
  <path class="fil1" d="M1441 315c0,-9 7,-16 16,-16l0 0c9,0 17,7 17,16l0 0c0,9 -8,16 -17,16l0 0c-9,0 -16,-7 -16,-16z"/>
  <path class="fil1" d="M1205 315c0,-20 17,-37 37,-37l0 0c21,0 37,17 37,37l0 0c0,20 -16,37 -37,37l0 0c-20,0 -37,-17 -37,-37z"/>
  <path class="fil1" d="M1016 315c0,-6 5,-11 11,-11l0 0c6,0 11,5 11,11l0 0c0,6 -5,11 -11,11l0 0c-6,0 -11,-5 -11,-11z"/>
  <path class="fil1" d="M804 315c0,-4 4,-8 8,-8l0 0c4,0 7,4 7,8l0 0c0,4 -3,8 -7,8l0 0c-4,0 -8,-4 -8,-8z"/>
  <path class="fil1" d="M580 315c0,-9 7,-17 17,-17l0 0c9,0 17,8 17,17l0 0c0,9 -8,17 -17,17l0 0c-10,0 -17,-8 -17,-17z"/>
  <path class="fil1" d="M343 315c0,-21 17,-38 39,-38l0 0c21,0 38,17 38,38l0 0c0,21 -17,38 -38,38l0 0c-22,0 -39,-17 -39,-38z"/>
  <path class="fil1" d="M145 315c0,-12 10,-22 22,-22l0 0c12,0 21,10 21,22l0 0c0,12 -9,22 -21,22l0 0c-12,0 -22,-10 -22,-22z"/>
  <path class="fil1" d="M-77 315c0,-16 12,-29 28,-29l0 0c16,0 29,13 29,29l0 0c0,16 -13,29 -29,29l0 0c-16,0 -28,-13 -28,-29z"/>
  <path class="fil1" d="M-272 315c0,-4 4,-8 8,-8l0 0c5,0 8,4 8,8l0 0c0,4 -3,8 -8,8l0 0c-4,0 -8,-4 -8,-8z"/>
  <path class="fil1" d="M-501 315c0,-12 10,-22 22,-22l0 0c13,0 23,10 23,22l0 0c0,12 -10,22 -23,22l0 0c-12,0 -22,-10 -22,-22z"/>
  <path class="fil1" d="M-710 315c0,-9 7,-17 16,-17l0 0c9,0 17,8 17,17l0 0c0,9 -8,16 -17,16l0 0c-9,0 -16,-7 -16,-16z"/>
  <path class="fil1" d="M-929 315c0,-11 9,-20 20,-20l0 0c11,0 20,9 20,20l0 0c0,11 -9,20 -20,20l0 0c-11,0 -20,-9 -20,-20z"/>
  <path class="fil1" d="M-1132 315c0,-5 3,-8 8,-8l0 0c4,0 8,3 8,8l0 0c0,5 -4,8 -8,8l0 0c-5,0 -8,-3 -8,-8z"/>
  <path class="fil1" d="M-1367 315c0,-15 13,-28 28,-28l0 0c15,0 27,13 27,28l0 0c0,15 -12,28 -27,28l0 0c-15,0 -28,-13 -28,-28z"/>
  <path class="fil1" d="M-1579 315c0,-14 11,-25 25,-25l0 0c13,0 24,11 24,25l0 0c0,14 -11,25 -24,25l0 0c-14,0 -25,-11 -25,-25z"/>
  <path class="fil1" d="M-1804 315c0,-19 16,-34 35,-34l0 0c18,0 34,15 34,34l0 0c0,19 -16,34 -34,34l0 0c-19,0 -35,-15 -35,-34z"/>
  <path class="fil1" d="M-1992 315c0,-4 4,-7 7,-7l0 0c4,0 7,3 7,7l0 0c0,4 -3,7 -7,7l0 0c-3,0 -7,-3 -7,-7z"/>
  <path class="fil1" d="M-2218 315c0,-10 8,-18 18,-18l0 0c10,0 19,8 19,18l0 0c0,10 -9,18 -19,18l0 0c-10,0 -18,-8 -18,-18z"/>
  <path class="fil1" d="M4887 342c-3,-1 -6,-3 -9,-6 -5,-6 -9,-13 -9,-21 0,-8 4,-15 9,-21 3,-3 6,-5 9,-6l0 54z"/>
  <path class="fil1" d="M4678 54c0,-4 2,-7 6,-7l0 0c4,0 6,3 6,7l0 0c0,3 -2,6 -6,6l0 0c-4,0 -6,-3 -6,-6z"/>
  <path class="fil1" d="M4429 54c0,-22 18,-40 40,-40l0 0c22,0 39,18 39,40l0 0c0,21 -17,39 -39,39l0 0c-22,0 -40,-18 -40,-39z"/>
  <path class="fil1" d="M4218 54c0,-20 16,-36 36,-36l0 0c20,0 36,16 36,36l0 0c0,19 -16,36 -36,36l0 0c-20,0 -36,-17 -36,-36z"/>
  <path class="fil1" d="M4012 54c0,-15 12,-27 27,-27l0 0c14,0 26,12 26,27l0 0c0,14 -12,26 -26,26l0 0c-15,0 -27,-12 -27,-26z"/>
  <path class="fil1" d="M3817 54c0,-4 3,-7 7,-7l0 0c3,0 6,3 6,7l0 0c0,3 -3,6 -6,6l0 0c-4,0 -7,-3 -7,-6z"/>
  <path class="fil1" d="M3586 54c0,-13 10,-23 22,-23l0 0c13,0 23,10 23,23l0 0c0,12 -10,22 -23,22l0 0c-12,0 -22,-10 -22,-22z"/>
  <path class="fil1" d="M3387 54c0,-4 3,-7 6,-7l0 0c4,0 6,3 6,7l0 0c0,3 -2,6 -6,6l0 0c-3,0 -6,-3 -6,-6z"/>
  <path class="fil1" d="M3151 54c0,-16 12,-28 27,-28l0 0c15,0 27,12 27,28l0 0c0,15 -12,27 -27,27l0 0c-15,0 -27,-12 -27,-27z"/>
  <path class="fil1" d="M2923 54c0,-23 18,-41 40,-41l0 0c22,0 40,18 40,41l0 0c0,22 -18,40 -40,40l0 0c-22,0 -40,-18 -40,-40z"/>
  <path class="fil1" d="M2727 54c0,-12 9,-21 21,-21l0 0c11,0 21,9 21,21l0 0c0,11 -10,20 -21,20l0 0c-12,0 -21,-9 -21,-20z"/>
  <path class="fil1" d="M2510 54c0,-13 10,-23 23,-23l0 0c12,0 23,10 23,23l0 0c0,12 -11,22 -23,22l0 0c-13,0 -23,-10 -23,-22z"/>
  <path class="fil1" d="M2288 54c0,-17 13,-30 30,-30l0 0c16,0 29,13 29,30l0 0c0,16 -13,29 -29,29l0 0c-17,0 -30,-13 -30,-29z"/>
  <path class="fil1" d="M2090 54c0,-8 5,-14 13,-14l0 0c7,0 13,6 13,14l0 0c0,7 -6,13 -13,13l0 0c-8,0 -13,-6 -13,-13z"/>
  <path class="fil1" d="M1865 54c0,-13 10,-23 22,-23l0 0c13,0 23,10 23,23l0 0c0,12 -10,22 -23,22l0 0c-12,0 -22,-10 -22,-22z"/>
  <path class="fil1" d="M1652 54c0,-12 9,-21 20,-21l0 0c12,0 21,9 21,21l0 0c0,11 -9,20 -21,20l0 0c-11,0 -20,-9 -20,-20z"/>
  <path class="fil1" d="M1451 54c0,-4 3,-7 6,-7l0 0c4,0 7,3 7,7l0 0c0,3 -3,6 -7,6l0 0c-3,0 -6,-3 -6,-6z"/>
  <path class="fil1" d="M1209 54c0,-19 15,-34 33,-34l0 0c19,0 34,15 34,34l0 0c0,18 -15,33 -34,33l0 0c-18,0 -33,-15 -33,-33z"/>
  <path class="fil1" d="M1007 54c0,-11 9,-20 20,-20l0 0c11,0 20,9 20,20l0 0c0,10 -9,19 -20,19l0 0c-11,0 -20,-9 -20,-19z"/>
  <path class="fil1" d="M786 54c0,-15 11,-27 26,-27l0 0c14,0 26,12 26,27l0 0c0,14 -12,26 -26,26l0 0c-15,0 -26,-12 -26,-26z"/>
  <path class="fil1" d="M567 54c0,-17 13,-30 30,-30l0 0c16,0 29,13 29,30l0 0c0,16 -13,29 -29,29l0 0c-17,0 -30,-13 -30,-29z"/>
  <path class="fil1" d="M362 54c0,-12 9,-21 20,-21l0 0c11,0 20,9 20,21l0 0c0,11 -9,20 -20,20l0 0c-11,0 -20,-9 -20,-20z"/>
  <path class="fil1" d="M130 54c0,-21 16,-37 37,-37l0 0c20,0 36,16 36,37l0 0c0,20 -16,36 -36,36l0 0c-21,0 -37,-16 -37,-36z"/>
  <path class="fil1" d="M-59 54c0,-6 5,-11 10,-11l0 0c6,0 11,5 11,11l0 0c0,5 -5,10 -11,10l0 0c-5,0 -10,-5 -10,-10z"/>
  <path class="fil1" d="M-282 54c0,-11 8,-19 18,-19l0 0c10,0 19,8 19,19l0 0c0,10 -9,18 -19,18l0 0c-10,0 -18,-8 -18,-18z"/>
  <path class="fil1" d="M-489 54c0,-6 4,-11 10,-11l0 0c6,0 11,5 11,11l0 0c0,5 -5,10 -11,10l0 0c-6,0 -10,-5 -10,-10z"/>
  <path class="fil1" d="M-709 54c0,-9 7,-15 15,-15l0 0c8,0 15,6 15,15l0 0c0,8 -7,14 -15,14l0 0c-8,0 -15,-6 -15,-14z"/>
  <path class="fil1" d="M-946 54c0,-21 17,-37 37,-37l0 0c20,0 37,16 37,37l0 0c0,20 -17,36 -37,36l0 0c-20,0 -37,-16 -37,-36z"/>
  <path class="fil1" d="M-1153 54c0,-17 13,-30 29,-30l0 0c16,0 29,13 29,30l0 0c0,16 -13,29 -29,29l0 0c-16,0 -29,-13 -29,-29z"/>
  <path class="fil1" d="M-1370 54c0,-18 14,-32 31,-32l0 0c17,0 31,14 31,32l0 0c0,17 -14,31 -31,31l0 0c-17,0 -31,-14 -31,-31z"/>
  <path class="fil1" d="M-1581 54c0,-15 12,-28 27,-28l0 0c15,0 27,13 27,28l0 0c0,15 -12,27 -27,27l0 0c-15,0 -27,-12 -27,-27z"/>
  <path class="fil1" d="M-1799 54c0,-17 13,-30 30,-30l0 0c16,0 29,13 29,30l0 0c0,16 -13,29 -29,29l0 0c-17,0 -30,-13 -30,-29z"/>
  <path class="fil1" d="M-2009 54c0,-14 11,-25 24,-25l0 0c14,0 25,11 25,25l0 0c0,13 -11,24 -25,24l0 0c-13,0 -24,-11 -24,-24z"/>
  <path class="fil1" d="M-2230 54c0,-17 14,-31 30,-31l0 0c17,0 31,14 31,31l0 0c0,16 -14,30 -31,30l0 0c-16,0 -30,-14 -30,-30z"/>
  <path class="fil1" d="M4887 83c-4,-1 -7,-4 -11,-7 -6,-6 -9,-14 -9,-22 0,-9 3,-17 9,-23 4,-3 7,-6 11,-7l0 59z"/>
  <path class="fil1" d="M-2403 -242c5,1 10,4 14,8 7,7 10,17 10,26 0,10 -3,19 -10,26 -4,4 -9,7 -14,8l0 -68z"/>
  <path class="fil1" d="M4671 -208c0,-7 6,-13 13,-13l0 0c7,0 13,6 13,13l0 0c0,7 -6,13 -13,13l0 0c-7,0 -13,-6 -13,-13z"/>
  <path class="fil1" d="M4459 -208c0,-5 4,-10 10,-10l0 0c5,0 10,5 10,10l0 0c0,5 -5,10 -10,10l0 0c-6,0 -10,-5 -10,-10z"/>
  <path class="fil1" d="M4219 -208c0,-19 15,-35 35,-35l0 0c19,0 35,16 35,35l0 0c0,19 -16,35 -35,35l0 0c-20,0 -35,-16 -35,-35z"/>
  <path class="fil1" d="M4030 -208c0,-5 4,-9 9,-9l0 0c4,0 8,4 8,9l0 0c0,5 -4,9 -8,9l0 0c-5,0 -9,-4 -9,-9z"/>
  <path class="fil1" d="M3808 -208c0,-9 7,-16 16,-16l0 0c8,0 15,7 15,16l0 0c0,9 -7,16 -15,16l0 0c-9,0 -16,-7 -16,-16z"/>
  <path class="fil1" d="M3587 -208c0,-12 10,-21 21,-21l0 0c12,0 22,9 22,21l0 0c0,12 -10,21 -22,21l0 0c-11,0 -21,-9 -21,-21z"/>
  <path class="fil1" d="M3358 -208c0,-19 16,-35 35,-35l0 0c20,0 36,16 36,35l0 0c0,20 -16,35 -36,35l0 0c-19,0 -35,-15 -35,-35z"/>
  <path class="fil1" d="M3160 -208c0,-10 8,-18 18,-18l0 0c10,0 18,8 18,18l0 0c0,10 -8,18 -18,18l0 0c-10,0 -18,-8 -18,-18z"/>
  <path class="fil1" d="M2935 -208c0,-16 12,-28 28,-28l0 0c16,0 28,12 28,28l0 0c0,16 -12,28 -28,28l0 0c-16,0 -28,-12 -28,-28z"/>
  <path class="fil1" d="M2725 -208c0,-12 10,-23 23,-23l0 0c12,0 23,11 23,23l0 0c0,13 -11,23 -23,23l0 0c-13,0 -23,-10 -23,-23z"/>
  <path class="fil1" d="M2496 -208c0,-20 16,-37 37,-37l0 0c20,0 37,17 37,37l0 0c0,20 -17,37 -37,37l0 0c-21,0 -37,-17 -37,-37z"/>
  <path class="fil1" d="M2284 -208c0,-18 15,-34 34,-34l0 0c18,0 33,16 33,34l0 0c0,19 -15,34 -33,34l0 0c-19,0 -34,-15 -34,-34z"/>
  <path class="fil1" d="M2076 -208c0,-15 12,-27 27,-27l0 0c14,0 26,12 26,27l0 0c0,15 -12,27 -26,27l0 0c-15,0 -27,-12 -27,-27z"/>
  <path class="fil1" d="M1873 -208c0,-8 6,-15 14,-15l0 0c9,0 15,7 15,15l0 0c0,8 -6,15 -15,15l0 0c-8,0 -14,-7 -14,-15z"/>
  <path class="fil1" d="M1648 -208c0,-14 11,-25 24,-25l0 0c14,0 25,11 25,25l0 0c0,14 -11,25 -25,25l0 0c-13,0 -24,-11 -24,-25z"/>
  <path class="fil1" d="M1439 -208c0,-10 8,-18 18,-18l0 0c10,0 18,8 18,18l0 0c0,10 -8,18 -18,18l0 0c-10,0 -18,-8 -18,-18z"/>
  <path class="fil1" d="M1236 -208c0,-3 3,-6 6,-6l0 0c4,0 6,3 6,6l0 0c0,4 -2,6 -6,6l0 0c-3,0 -6,-2 -6,-6z"/>
  <path class="fil1" d="M1007 -208c0,-11 9,-20 20,-20l0 0c11,0 20,9 20,20l0 0c0,11 -9,20 -20,20l0 0c-11,0 -20,-9 -20,-20z"/>
  <path class="fil1" d="M792 -208c0,-11 9,-20 20,-20l0 0c11,0 20,9 20,20l0 0c0,11 -9,20 -20,20l0 0c-11,0 -20,-9 -20,-20z"/>
  <path class="fil1" d="M562 -208c0,-19 16,-34 35,-34l0 0c19,0 34,15 34,34l0 0c0,19 -15,35 -34,35l0 0c-19,0 -35,-16 -35,-35z"/>
  <path class="fil1" d="M342 -208c0,-22 18,-39 40,-39l0 0c21,0 39,17 39,39l0 0c0,22 -18,39 -39,39l0 0c-22,0 -40,-17 -40,-39z"/>
  <path class="fil1" d="M156 -208c0,-6 5,-11 11,-11l0 0c5,0 10,5 10,11l0 0c0,6 -5,11 -10,11l0 0c-6,0 -11,-5 -11,-11z"/>
  <path class="fil1" d="M-67 -208c0,-10 8,-19 18,-19l0 0c11,0 19,9 19,19l0 0c0,10 -8,19 -19,19l0 0c-10,0 -18,-9 -18,-19z"/>
  <path class="fil1" d="M-275 -208c0,-6 5,-11 11,-11l0 0c7,0 12,5 12,11l0 0c0,6 -5,11 -12,11l0 0c-6,0 -11,-5 -11,-11z"/>
  <path class="fil1" d="M-496 -208c0,-9 8,-17 17,-17l0 0c10,0 17,8 17,17l0 0c0,9 -7,17 -17,17l0 0c-9,0 -17,-8 -17,-17z"/>
  <path class="fil1" d="M-728 -208c0,-19 15,-35 34,-35l0 0c19,0 35,16 35,35l0 0c0,19 -16,35 -35,35l0 0c-19,0 -34,-16 -34,-35z"/>
  <path class="fil1" d="M-944 -208c0,-19 16,-35 35,-35l0 0c19,0 35,16 35,35l0 0c0,19 -16,35 -35,35l0 0c-19,0 -35,-16 -35,-35z"/>
  <path class="fil1" d="M-1144 -208c0,-11 9,-20 20,-20l0 0c11,0 20,9 20,20l0 0c0,11 -9,20 -20,20l0 0c-11,0 -20,-9 -20,-20z"/>
  <path class="fil1" d="M-1367 -208c0,-15 12,-28 28,-28l0 0c15,0 28,13 28,28l0 0c0,15 -13,28 -28,28l0 0c-16,0 -28,-13 -28,-28z"/>
  <path class="fil1" d="M-1581 -208c0,-14 12,-26 27,-26l0 0c14,0 26,12 26,26l0 0c0,15 -12,26 -26,26l0 0c-15,0 -27,-11 -27,-26z"/>
  <path class="fil1" d="M-1778 -208c0,-5 4,-8 9,-8l0 0c4,0 8,3 8,8l0 0c0,5 -4,8 -8,8l0 0c-5,0 -9,-3 -9,-8z"/>
  <path class="fil1" d="M-2020 -208c0,-20 16,-35 35,-35l0 0c20,0 36,15 36,35l0 0c0,20 -16,36 -36,36l0 0c-19,0 -35,-16 -35,-36z"/>
  <path class="fil1" d="M-2230 -208c0,-16 14,-30 30,-30l0 0c17,0 30,14 30,30l0 0c0,17 -13,30 -30,30l0 0c-16,0 -30,-13 -30,-30z"/>
  <path class="fil1" d="M4887 -171c-5,-2 -11,-5 -15,-10 -7,-7 -11,-17 -11,-27 0,-10 4,-20 11,-27 4,-4 10,-8 15,-9l0 73z"/>
 </g>
</svg>
